<?xml version="1.0" encoding="utf-8"?>
<!-- Generator: Adobe Illustrator 23.0.5, SVG Export Plug-In . SVG Version: 6.00 Build 0)  -->
<svg version="1.1" id="Predeterminado" xmlns="http://www.w3.org/2000/svg" xmlns:xlink="http://www.w3.org/1999/xlink" x="0px"
	 y="0px" viewBox="0 0 322.2 259.9" style="enable-background:new 0 0 322.2 259.9;" xml:space="preserve">
<style type="text/css">
	.st0{fill:#FFFFFF;}
	.st1{fill:#2E88D1;}
	.st2{fill:#F68B39;}
	.st3{fill:#B7602C;}
	.st4{fill:#1B5185;}
	.st5{fill:#112612;}
	.st6{fill:#65452A;}
	.st7{fill:#CEA280;}
	.st8{fill:#FADCC7;}
	.st9{fill:#4C4F52;}
	.st10{fill:#9FA8B2;}
	.st11{fill:#3D150C;}
	.st12{fill:#0C1938;}
	.st13{fill:none;}
	.st14{fill:#C9C9C9;}
	.st15{fill:#9DA9B4;}
	.st16{fill:#4C321E;}
	.st17{fill:#187F59;}
	.st18{fill:#1C3D20;}
	.st19{fill:#401F06;}
	.st20{fill:#77533A;}
	.st21{fill:#AF8168;}
	.st22{fill:#932424;}
	.st23{fill:#5C1E09;}
	.st24{fill:#D03428;}
	.st25{fill:#673111;}
</style>
<rect x="74.1" y="135.1" class="st0" width="133.8" height="63.4"/>
<path class="st0" d="M51,107.2c-1.1-2.1-0.3-7.3,0.6-12.4c0.8-5.1,1.6-10.3,2.8-15.8c1.1-5.6,2.6-11.6,3.8-16.8
	c1.3-5.1,2.4-9.4,3.7-13.5s2.7-8,4.4-11.3c1.8-3.3,3.9-6.1,6.5-8.6s5.6-4.8,9-6.6c3.3-1.8,7-3,12.1-4.6s11.8-3.6,17.8-5.2
	s11.4-2.9,17-3.9c5.5-1,11.2-1.6,16.2-2.1s9.3-0.9,13.7-0.8s8.7,0.7,12.7,1.2s7.6,1,12.2,1.7c4.6,0.7,10.2,1.7,16.4,3.8
	s13.2,5.4,19.5,9.6c6.4,4.1,12.3,9,17.3,18.5c5,9.4,9.2,23.4,12.1,38.9c2.9,15.5,4.5,32.6,4.7,41.1s-0.9,8.5-5.8,6.8
	c-4.9-1.7-13.5-5-30.9-9.8s-43.5-11.2-65.6-14.4c-22.1-3.2-40.2-3.1-54.9-1.8c-14.8,1.3-26.2,3.8-33.6,5.6
	C55.3,108.4,52.1,109.4,51,107.2z"/>
<g>
	<path class="st1" d="M247,118.7c-1.4-18.7-2.6-27-3.8-34s-2.3-12.8-3.9-19.4s-3.8-13.8-6.2-19.6c-2.3-5.9-4.8-10.3-7-13.5
		s-4.1-5.1-6.9-7.2c-2.8-2.1-6.4-4.4-12.9-7.7c-6.5-3.2-15.7-7.4-21.1-8.3c2.7,0.5,5.1,0.9,7.3,1.4c7,1.5,13.1,3,18.9,4.9
		c5.8,1.9,11.3,4.2,15.7,6.7s7.8,5.3,10.9,8.7c3.1,3.4,6.1,7.5,8.5,11.5s4.3,7.9,6.1,12.7c1.8,4.9,3.7,10.7,5,15.7s2.2,9.2,3,14.9
		c0.9,5.7,1.7,12.8,2.3,20.1c0.5,6.7,0.8,13.6,0.9,20.7C258.3,123.7,252.6,121.2,247,118.7z"/>
	
		<rect x="235.8" y="22.4" transform="matrix(0.6315 -0.7754 0.7754 0.6315 63.9545 195.2223)" class="st1" width="3.1" height="15.9"/>
	
		<rect x="238.6" y="27.2" transform="matrix(0.6315 -0.7754 0.7754 0.6315 61.252 199.1861)" class="st1" width="3.1" height="15.9"/>
	
		<rect x="253" y="113.6" transform="matrix(0.2703 -0.9628 0.9628 0.2703 68.7264 333.7614)" class="st1" width="3.1" height="15.9"/>
	
		<rect x="256.5" y="116.1" transform="matrix(0.3858 -0.9226 0.9226 0.3858 44.0739 314.2719)" class="st1" width="3.1" height="15.9"/>
</g>
<path class="st2" d="M274.5,197c-5.2,1.2-11.4-1.5-16.7-4c0.3-0.4,0.7-0.9,1-1.4c7.7,0,11.7,0.3,15.5,0.8s7.5,1.2,9.4,2
	c-0.8,0.3-2,0.7-3.8,1.2C278.5,196,276.7,196.4,274.5,197z"/>
<path class="st3" d="M286.6,152.8c4.6,6.3,11.2,11.8,15.4,15.3c4.2,3.5,6,5.2,6.2,6.1c0.3,1-1,1.2-5.5,0.1
	c-4.5-1.2-12.4-3.8-40.7-12.7c0,2.1-0.1,4.1-0.4,6c-0.5,4.3-1.8,7.9-4.1,12.4c-0.8,1.5-1.8,3.1-2.8,4.8c7.9,0.1,11.5-0.8,15-1.3
	s6.8-0.7,16.3,0.6c3-0.3,6.2-0.7,9.2-1c4.7-0.6,8.7-1.4,12.1-2.1c3.4-0.8,6.2-1.5,7.5-2.3c1.4-0.8,1.4-1.6,0-3.2
	c-1.4-1.6-4.2-3.8-8.6-7.4s-10.5-8.4-15.5-12.3C289.1,154.7,287.8,153.7,286.6,152.8z"/>
<path class="st2" d="M291,182.6c-7.9-1.4-10.8-1.1-13.7-0.6c-2.9,0.5-6,1.4-12.6,1.3c-0.5,0.9-0.9,1.8-1.4,2.7
	c10.1,1.1,13.4,0.4,16-0.4s4.6-1.7,7.8-2.3C288.2,183,289.5,182.8,291,182.6z"/>
<path class="st3" d="M274.6,196.4c-5.4,1.2-11.9-1.4-17.4-3.8c-1.9,2.2-3.7,3.9-5.5,5.6c-1.6,1.4-3.2,2.8-4.8,4
	C259.8,199.6,268.7,197.7,274.6,196.4z"/>
<path class="st3" d="M64.7,205.5c-7.9-0.7-14.5-0.7-18.4-0.8s-5.2-0.2-6.1-0.4c-0.9-0.2-1.4-0.4-1.4-0.8c0.1-0.4,0.7-1.1,4-2.3
	c3.3-1.3,9.2-3.2,15.3-5.7c1.9,3.2,4,5.8,5.2,7.6C64.1,204,64.5,204.8,64.7,205.5z"/>
<path class="st3" d="M12.3,187.9c4.7-0.6,5.2-1.1,5.1-1.6c-0.2-0.5-1-0.8-2.4-1.3c-1.4-0.4-3.2-0.9-4.3-1.3
	c-1.1-0.5-1.3-0.9-0.4-2.2c1-1.3,3.3-3.3,5.2-4.7c1.9-1.3,3.4-1.9,5.4-2.3c2-0.4,4.4-0.7,6.3-2c1.9-1.3,3.2-3.7,4.3-5.9
	c1.2-2.1,2.2-4,4.5-6.7s5.9-6.2,5.2-13.3c2-1.3,4.1-2.2,6.4-2.6c-0.2,1.8-0.3,4.1-0.3,6.6c0,4.4,0.4,9.8,1.5,15.2s3,10.8,4.8,15.8
	c1.6,4.3,3.2,8.2,5.1,11.7c-7.4,0.6-12.5-0.5-16.9-1s-8.2-0.5-12.2-0.9c-4.1-0.4-8.5-1.2-12.8-2.3C15.3,188.7,13.7,188.3,12.3,187.9
	z"/>
<path class="st3" d="M50.9,129.5c-1.5,0.2-2.9,0.5-4.3,0.7c-1.6,0.3-3.1,0.6-4.6,0.9c-0.2,3.7-3.6,6.1-6.7,8.7
	c-3.1,2.6-5.9,5.5-7.3,7.2c-1.5,1.7-1.6,2.3-0.8,2c0.8-0.3,2.6-1.4,4.6-2.4s4.2-2,7.8-0.4c2.3-0.6,5-1.1,8.1-1.4
	c0.4-2.1,0.9-3,1.7-3.5c0.7-0.4,1.7-0.6,2.7-0.1c0.3,0.2,0.8,0.6,1.3,1.2C52.5,138.5,51.7,134.2,50.9,129.5z"/>
<path class="st3" d="M52.8,129.9c1.1,8,1.6,10,2.2,11.6c0.7,1.9,1.6,3.4,2.6,5s1.9,3.5,2.6,6.1c0.7,2.6,1.2,6,1.6,7.8
	c0.4,1.8,0.7,1.9,1,0.7c0.4-1.2,0.8-3.7,1.1-6.4c0.4-2.7,0.7-5.6,0.8-8.3c0.1-2.7,0-5.2,0.2-7.3c0.1-2.1,0.5-3.8,1.2-5s1.8-2,2.4-3
	c0.4-0.6,0.6-1.3,0.8-2.9C63.4,128.5,58,129.1,52.8,129.9z"/>
<g>
	<rect x="88" y="126.8" class="st3" width="7.6" height="1.1"/>
	<path class="st3" d="M103.1,140.3c1.9,1.3,3.1,0.9,3.7,0.5s0.6-0.9-0.3-2c-0.9-1-2.7-2.5-12.1-11.7c-2.1,0-4.1,0.1-6.2,0.2
		c4.2,3.5,7.5,6.7,9.9,9.6C99.7,138,101.4,139.1,103.1,140.3z"/>
</g>
<path class="st4" d="M144.3,127.3c8.7-1.6,16.9-1.2,24.8-0.9c7.9,0.3,15.5,0.6,23,0.4s14.7-0.7,20.5-1.7c5.7-0.9,9.9-2.2,12.7-2.6
	c2.8-0.3,4.2,0.2,5.4,5.4c-2.2,1.1-5,2.1-9.2,2.7c-2.7,0.4-6.1,0.6-10.4,0.6c-0.8,0-1.7,0-2.6,0c-3.3,0-7.1-0.2-11.6-0.4
	c-2.2-0.1-4.6-0.3-7-0.4c-1.1-0.1-2.3-0.2-3.5-0.2c-2.2-0.2-4.4-0.3-6.7-0.5c-1.2-0.1-2.4-0.2-3.6-0.3c-3.9-0.3-7.8-0.6-11.7-0.9
	c-1.3-0.1-2.6-0.2-3.9-0.3c-2.4-0.2-4.8-0.3-7.1-0.5C150.2,127.6,147.2,127.4,144.3,127.3z"/>
<path class="st3" d="M257.8,191.9c9.2,0,14,0.5,18.6,1.2c4.6,0.8,8.9,1.9,11.3,3.2c1.6-0.9,1.5-1.4,0.9-1.9c-0.9-0.8-3-1.5-7.8-2.6
	s-12.3-2.5-22.2-1.3C258.3,190.9,258,191.4,257.8,191.9z"/>
<path class="st3" d="M160.7,127.9c-9,11.8-14.1,18.8-18.6,25s-8.6,11.5-11.2,14.9s-3.9,5.1-4.6,5.9c-0.8,0.8-1.1,0.8-1.4-0.6
	c-0.3-1.4-0.7-4.2-1-8.8s-0.5-10.9-0.9-16.4c-0.4-5.4-1.1-10-1.5-12.6c-0.5-2.6-0.9-3.3-1.6-3.4c-0.7-0.2-1.8,0.2-2.9,1.8
	s-2.3,4.3-3.4,6.7c-1.2,2.4-2.4,4.6-3,5.4c-0.7,0.8-0.8,0.2-0.6-1.6c0.2-1.8,0.6-4.8,1.4-8.2s1.9-7.3,1.9-9.3c0.9,0,1.9,0,2.8,0
	c12.6,0,23.6,0.1,37.8,0.8C155.9,127.6,158.3,127.7,160.7,127.9z"/>
<path class="st4" d="M163.6,80.9c-10,0-29.2,0.2-42.2,0.5s-19.7,0.8-23.3,1c-3.5,0.2-3.9,0-3.9-0.7s0.2-2,4.7-7.1
	s13.1-13.9,20.2-21.3s12.5-13.3,16-16.4s5-3.3,6.3-3.3s2.3,0.2,3.9,1.9c1.5,1.7,3.6,4.9,5,7.4s2.2,4.3,2.2,5.4
	c0,1.1-0.7,1.6-1.4,1.4c-0.8-0.2-1.6-1.1-2.5-1.7c-1-0.6-2.1-0.9-3.3-0.7s-2.7,0.9-6.9,4.8c-4.2,3.8-11,10.8-14.8,14.9
	s-4.6,5.2-4.3,6c0.3,0.7,1.5,1,9.1,0.9s21.4-0.5,29.4-0.6c8-0.2,10-0.1,11.4,0.1s2.3,0.6,3.4,1.8c1.1,1.2,2.4,3.3,2.9,4.4
	s0.2,1.3-0.3,1.3C174.5,81,173.6,80.8,163.6,80.9z"/>
<path class="st5" d="M193,147.4c0,12.4,0,24.8,0,37.2c0,3.3-2.7,6-6,6c-0.1,0-0.2,0-0.2,0c-3.3,0-6-2.7-6-6c0-12.4,0-24.8,0-37.2
	c0-3.3,2.7-6,6-6c0.1,0,0.2,0,0.2,0C190.4,141.4,193,144.1,193,147.4z"/>
<path class="st5" d="M106.7,146.2c0,12.4,0,24.8,0,37.2c0,3.3-2.7,6-6,6c-0.1,0-0.2,0-0.2,0c-3.3,0-6-2.7-6-6c0-12.4,0-24.8,0-37.2
	c0-3.3,2.7-6,6-6c0.1,0,0.2,0,0.2,0C104.1,140.2,106.7,142.9,106.7,146.2z"/>
<path class="st6" d="M110.6,211.8c-0.1,1.2-0.1,3.5,0.7,6.2c0.8,2.7,2.5,5.8,4.9,9.6s5.7,8.3,9.2,12.4c3.5,4,7.2,7.6,10,9.7
	c2.8,2.1,4.8,2.7,6.8,2.9s4.2-0.2,5.7-0.8c1.6-0.7,2.6-1.7,4.9-3.9c2.3-2.2,5.9-5.6,8.8-8.8c2.9-3.2,5.2-6.2,7.1-9.3
	c1.9-3.1,3.4-6.3,4.4-9.1s1.6-5.4,1.9-7c0.3-1.6,0.4-2.3,0.2-2.7c-0.1-0.4-0.5-0.6-1.9-0.7c-1.4-0.1-3.7-0.2-12.6-0.1
	c-8.9,0.1-24.2,0.2-33.5,0.3c-9.3,0-12.7-0.1-14.5,0C111.1,210.4,110.8,210.6,110.6,211.8z"/>
<path class="st7" d="M153.7,150.4c0.6-0.3,1.2-0.7,2-1.1c2.6-1.5,6-3.5,10-5.9c-1.5,3.6-1.9,5.5-1.8,6.9
	C161.5,150.9,158.1,151,153.7,150.4z"/>
<path class="st7" d="M176.1,137.2c4.3-2.5,8.9-5.1,13.4-7.6c2.4,0.1,4.8,0.3,6.9,0.3c4.4,0.2,8.2,0.3,11.5,0.3
	c3.5,4.3,6.1,7.5,7.9,9.8c0.9,1.2,0.3,2.6-1.8,4.2c-2.2,1.5-5.8,3.2-12.6,6.1c-0.4-1.2-0.9-2.1-1.4-3.1c-0.9-1.7-1.8-3.2-3-4.7
	c-1.3-1.5-2.9-2.9-4.4-3.9s-2.8-1.6-5.6-1.8C184.1,136.8,179.8,136.9,176.1,137.2z"/>
<path class="st7" d="M175.8,128.8c-7.7,7.5-15.5,13.3-20.2,16.9c-4.6,3.6-6.1,5.1-6.7,6c-0.2,0.3-0.3,0.6,0,0.6
	c-1.6-0.2-3.3-0.5-4.9-0.7c4.8-5.9,10.5-12.8,20.2-23.6C168.1,128.4,172,128.6,175.8,128.8z"/>
<path class="st8" d="M228,168.8c3.2-9.4,6.7-16.4,8.9-20.6c0.7-1.2,1.2-2.2,1.7-3c1.3-2.1,2.1-3.2,3.2-4.5c1.5-1.9,3.4-4.1,5.6-5.2
	c2.2-1.1,4.8-1,7-0.3c2.3,0.7,4.2,2.1,6.1,4.4c1.9,2.3,3.9,5.7,5.1,9c1.2,3.4,1.6,6.7,1.8,10.1c0.2,3.4,0.4,6.8,0,9.9
	c-0.4,3-1.3,5.6-3.5,9.3c-2.3,3.7-6,8.4-8.9,11.8c-2.9,3.4-5,5.6-7,7.3s-4.1,3-5.9,3.8c-1.8,0.8-3.4,1.1-4.5,0.9
	c-1.1-0.2-1.6-0.9-1.6-2c-0.1-1.1,0.3-2.6,1-4c0.8-1.5,1.9-3,3.6-4.6c1.7-1.6,4.1-3.4,6.8-5.5s5.9-4.7,8.1-6.8
	c2.3-2.1,3.6-3.8,4.6-5.9c1-2.1,1.5-4.7,1.7-7.1c0.2-2.4,0.1-4.6-0.1-6.9c-0.3-2.3-0.7-4.7-1.5-6.8s-2-3.8-3.4-5.2s-2.9-2.4-4.4-2.6
	c-1.5-0.2-2.9,0.5-4.4,1.6s-2.9,2.7-4,4.7s-1.7,4.5-2.3,6.8c-0.5,2.3-0.9,4.5-0.7,5.8s0.9,1.6,1.3,2.2c0.4,0.6,0.5,1.6,0.6,3.1
	c0,1.5-0.1,3.6-0.2,5.1c-0.2,1.5-0.4,2.4-0.8,2.9c-0.4,0.5-1.1,0.7-1.8,1.1c-0.7,0.4-1.3,1.1-1.4,1.7c-0.1,0.6,0.4,1.1,1.1,1.3
	c0.7,0.2,1.5,0.2,2.3-0.5s1.6-2,2.2-3.4c0.6-1.4,0.8-2.9,1.1-4s0.5-1.7,0.9-2.1c0.4-0.4,0.9-0.5,1.6-0.5c0.7,0.1,1.5,0.4,2.2,0.9
	c0.7,0.6,1.2,1.4,1.5,2.5c0.2,1.1,0.2,2.4,0.1,3.5c-0.1,1-0.3,1.8-1.3,2.8s-2.7,2.3-5.1,4.2c-2.4,1.9-5.5,4.5-7.6,6.4
	c-2.2,1.9-3.5,3.2-4.4,4.7s-1.3,3.2-1.3,4.6c0.1,1.4,0.7,2.4,1,3.4s0.2,2.1-0.5,3.4c-0.7,1.4-1.9,3-4.9,6s-7.6,7.2-12.6,11.1
	c-5,3.9-10.5,7.6-16,11.2c-5.5,3.6-11.1,7.3-16.3,10.3s-10,5.4-14.6,7.3c-4.7,1.9-9.2,3.3-12.6,4.1c-3.4,0.8-5.7,1-8.2,0.9
	s-5.2-0.3-8.3-1c-3-0.6-6.4-1.6-11.3-3.6c-4.9-2-11.4-5-17.6-8s-12.1-6.1-17.5-9.5s-10.4-7.2-14-10.6c-3.6-3.4-5.7-6.3-7.2-8.9
	c-1.5-2.6-2.3-4.7-2.8-7.1s-0.8-4.8-0.8-8.5c0-3.6,0.3-8.4,0.4-11.8c0.1-3.4-0.1-5.5-0.7-7.9s-1.6-5.2-3.8-14.5
	c0.3-1.2,0.6-2.3,0.8-3.4c3.6,11.3,4.7,15.9,5.3,18.9c0.5,2.9,0.5,4.2,0.6,6.8c0,2.6,0.1,6.5,0.3,10.1c0.2,3.5,0.6,6.7,1,9.4
	s1,4.9,2,6.8c1,2,2.4,3.7,5.4,6.5s7.5,6.7,12.6,10.2c5.2,3.6,11,6.8,16.8,9.9c5.8,3.1,11.5,5.9,16.1,8c4.5,2.1,7.9,3.3,10.5,4.2
	c2.7,0.8,4.7,1.2,6.3,1.2c1.7,0,3-0.5,3.5-2.2c1.1-0.1,2.1-0.4,3-0.8c1.6-0.7,2.6-1.7,4.9-3.9c2.3-2.2,5.9-5.6,8.8-8.8
	c2.9-3.2,5.2-6.2,7.1-9.3c1.9-3.1,3.4-6.3,4.4-9.1s1.6-5.4,1.9-7c0.3-1.6,0.4-2.3,0.2-2.7c-0.1-0.4-0.5-0.6-1.9-0.7
	c-1.4-0.1-3.7-0.2-12.6-0.1c-4.7,0-11.2,0.1-17.7,0.1c-8.6-1.7-10.6-1.8-11.9-1.9c-1.3-0.2-1.8-0.4-1.8-2.7c0.3-0.3,0.6-0.7,0.7-1.2
	c0.2-0.8-0.1-1.9-0.5-2.6c-0.4-0.8-0.9-1.2-1.1-1.9c-0.2-0.7-0.2-1.6-0.3-3.3s-0.2-4.3-0.3-6.4c0-2.1,0-3.6-0.1-4.5
	s-0.5-1.2-0.9-1.7s-0.9-1.1-1.2-1.4c-0.3-0.3-0.4-0.4-0.6,0s-0.3,1.3-0.8,2.7c-0.5,1.3-1.3,3.1-2.6,5c-5.1,4.9-6.7,6.2-8,6.7
	c-1.3,0.6-2.3,0.4-4.2,0.4c-1.9,0-4.5,0.2-6.8,0.7s-4.1,1.3-5.3,1.5c-1.2,0.2-1.9-0.2-2.6-0.9c-0.7-0.6-1.5-1.4-1.4-2.3
	c0.1-0.7,0.7-1.5,3.5-1.8v-0.1c0.7,0,1.4,0,2.1,0c4.8-0.1,6-0.2,6.6-0.5c0.5-0.3,0.4-0.8-0.1-1.1c-0.5-0.2-1.2-0.3-2.6-0.3
	c6-0.1,6.6-0.1,7-0.2c0.4-0.1,0.5-0.4,0.5-1.4s-0.1-2.6,0-7.1c0-4.5,0.2-11.8,0.3-28.9c0.1,0,0.2,0,0.3,0c0.4,0,0.9-0.2,1.3-1.1
	c0.3-0.8,0.4-2.3,0.1-7.2c5.6,5.3,6.3,5.3,6.1,4.3c-0.2-1-1.4-3.2-4.7-8.3c0.9-1.3,1.7-2.6,2.3-3.6c1.9-2.9,2.6-3.6,3.1-3.6
	c0.5-0.1,0.8,0.4,1,2.7s0.3,6.4,0.7,11.5c0.4,5.1,0.9,11.1,1.5,15.2c0.6,4,1.1,6,1.7,7.1s1.2,1.3,4-1.6c2.8-2.8,7.7-8.7,13.2-15.4
	c0.9-1.2,1.9-2.3,2.9-3.5c1.6,0.2,3.3,0.5,4.9,0.7c0.4,0.1,1.7-0.4,4.7-2.1c4.4,0.6,7.8,0.6,10.2-0.1c0.1,1.4,0.5,2.3,1,2.5
	c0.5,0.3,1-0.1,1.5-1.1c0,1.4,0,2.7,0,4c0,19.2,0,26.1,0,30.3c0,2.8,0,4.3,0.1,5.3c-14.1-0.3-14.5-0.2-14.5,0.1s0.2,0.7,2.1,2.4
	c1.9,1.7,5.4,4.6,8.9,8.2c-0.1,0.1-0.2,0.2-0.2,0.4s0,0.3,0.1,0.5c-2.9,0.9-3,1.5-2.8,2s0.7,0.9,1.8,0.9s2.9-0.5,4.4-0.9
	c1.5-0.5,2.7-1,3.8-1.4s2.1-0.8,3.3-1s2.6-0.3,3.6-0.5c1.1-0.3,1.8-0.7,1.7-1.8c0.2,0,0.4-0.1,0.5-0.1c1.8-0.3,2.7-0.4,3.2-0.3
	c0.5,0.1,0.5,0.3,0,0.7s-1.4,1-2.4,1.6s-2,1.1-2.5,1.8s-0.4,1.4-0.1,2c0.3,0.6,0.8,0.9,2,0.7s3-1,5.6-1.6c2.7-0.7,6.2-1.2,9.2-1.5
	s5.3-0.3,7.1-0.5c1.7-0.2,2.8-0.6,3.3-1.2c0.5-0.6,0.4-1.3-0.4-1.8c-0.8-0.5-2.4-0.6-5.3-0.2c-2.8,0.4-6.9,1.4-9.8,2.1
	c-2.9,0.7-4.5,1.1-5.3,1.1s-0.8-0.2,0-0.8s2.3-1.5,3.1-2.2c0.8-0.8,0.7-1.4,0.3-1.8c-0.4-0.4-1.3-0.6-3.5-0.3
	c-2.2,0.2-5.6,0.8-9.1,1.4c-1.7,0.3-3.3,0.6-4.8,0.9c1-1.4,2-2.7,3-4.1c0.7,0.1,1.5,0.1,2.5,0.2c5,0.2,14.2,0,19.6-0.2
	c5.4-0.2,7-0.4,7.8-0.7s0.9-0.9,0.8-6c-0.1-5.1-0.5-14.8-0.7-21.7s-0.2-10.9-0.7-13.7c-0.2-1.3-0.5-2.3-0.8-3.2
	c6.7-3,10.4-4.6,12.6-6.1c2.2-1.5,2.8-2.9,1.8-4.2c3.3,4.2,4.3,5.7,4.8,6.6c0.9,1.6,0.4,1.6-0.7,1.1c-1.1-0.5-2.8-1.5-3.9-1.8
	c-1.1-0.4-1.7-0.2-1.5,0.3c0.1,0.4,0.9,1.1,2.4,2.4c1.5,1.3,3.8,3.3,5.8,6.1C224.7,157.6,226.6,161.3,228,168.8z"/>
<path class="st7" d="M65.7,191.6c-1.4,2.2-1.8,2.1-2.4,1.3c-0.6-0.8-1.2-2.3-2.4-5.2s-2.9-7.2-4.2-11.7s-2.4-9.2-3-13.4
	c-0.6-4.3-0.8-8.2-0.9-10.4c0-2.2,0.2-2.7,0.6-2.5c0.4,0.2,1.1,1.2,1.8,2.5c0.6,1.2,1.2,2.8,2.9,2.8c0.9,3.2,1.9,6.8,2.7,10.2
	c0.3,1.2,0.6,2.4,0.9,3.5c-0.2,8.5,0.7,11.7,1.4,14.9C63.8,186.7,64.2,189.8,65.7,191.6z"/>
<path class="st7" d="M96.2,135.6c-4.3-2.9-8.3-5.6-11.9-8.2c-2.1,0.1-4.2,0.2-6.3,0.3c-2,0.1-4,0.2-5.9,0.4c0,1.8-0.1,3-0.3,3.7
	c-0.3,1.1-1.1,1.2-1.7,1.6c-0.6,0.4-1.1,1.1-1.5,2.3s-0.7,2.9-0.9,4.6c-0.2,1.7-0.2,3.5-0.4,5.5c-0.2,2-0.7,4.3-1.2,8
	c-0.3,2.3-0.7,5-1.5,9c3.6,11.3,4.7,15.9,5.3,18.9c0.5,2.9,0.5,4.2,0.6,6.8c0,2.6,0.1,6.5,0.3,10.1c0.2,3.5,0.6,6.7,1,9.4
	s1,4.9,2,6.8c1,2,2.4,3.7,5.4,6.5s7.5,6.7,12.6,10.2c5.2,3.6,11,6.8,16.8,9.9c5.8,3.1,11.5,5.9,16.1,8c4.5,2.1,7.9,3.3,10.5,4.2
	c2.7,0.8,4.7,1.2,6.3,1.2c1.7,0,3-0.5,3.5-2.2c-0.9,0.1-1.8,0.1-2.8,0.1c-2-0.2-4-0.8-6.8-2.9c-2.8-2.1-6.5-5.7-10-9.7
	s-6.7-8.6-9.2-12.4c-2.4-3.8-4.1-6.9-4.9-9.6c-0.8-2.7-0.8-5-0.7-6.2c0.1-1.2,0.4-1.4,2.2-1.5c1.8,0,5.1,0.1,14.5,0
	c4.4,0,10.1-0.1,15.8-0.1c-8.6-1.7-10.6-1.8-11.9-1.9c-1.3-0.2-1.8-0.4-1.8-2.7c-0.2,0.2-0.4,0.3-0.6,0.4c-0.6,0.3-1.3,0.3-2.2-0.2
	c-0.9-0.4-2-1.4-3.2-2c-1.3-0.7-2.7-1.1-4.1-1.8s-2.8-1.5-3.3-2.4c-0.5-0.8,0-1.7,1.2-3.2s3-3.7,4.4-5.8c0.1-0.1,0.1-0.2,0.2-0.3
	c-5.1,4.9-6.7,6.2-8,6.7c-1.3,0.6-2.3,0.4-4.2,0.4c-1.9,0-4.5,0.2-6.8,0.7s-4.1,1.3-5.3,1.5c-1.2,0.2-1.9-0.2-2.6-0.9
	c-0.7-0.6-1.5-1.4-1.4-2.3c0.1-0.7,0.7-1.5,3.5-1.8v-0.1c-4.9,0-11.8,0-15.6,0c-4.3,0-4.5,0-4.6-0.1s-0.1-0.2,0-4.7
	s0.2-13.5,0.3-20.6c0.1-7.1,0.2-12.3,0.4-16.2c0.3-3.8,0.8-6.2,1.6-8.4c0.9-2.1,2.2-4,3.8-5.4c1.6-1.4,3.6-2.4,5.6-3
	C90.6,135.6,92.6,135.2,96.2,135.6z"/>
<path class="st1" d="M163.6,78.6c-2,0-4,0-6,0c-2.4,0-4.8,0-7.2,0.1c-5.3,0-10.6,0.1-16,0.2c-2.6,0-5.2,0.1-7.8,0.1
	c-2.4,0-4.7,0.1-7.1,0.2c-3.6,0.1-7.3,0.2-10.9,0.4c-1.7,0.1-3.4,0.2-5.1,0.2c-1.5,0.1-2.9,0.2-4.4,0.2c-0.6,0-1.2,0.1-1.8,0.1
	c0.2-0.3,0.4-0.6,0.7-0.9c0.3-0.4,0.6-0.8,1-1.2c0.5-0.6,0.9-1.1,1.4-1.6c0.7-0.8,1.4-1.6,2.2-2.4c0.9-1,1.8-2,2.8-3
	c1-1.1,2.1-2.2,3.1-3.3c1.8-1.9,3.7-3.8,5.5-5.7c1.2-1.2,2.3-2.4,3.5-3.6c1.1-1.2,2.3-2.4,3.4-3.5c2-2.1,4.1-4.3,6.1-6.4
	c0.9-0.9,1.8-1.9,2.7-2.8c0.5-0.5,1-1,1.5-1.5c0.7-0.8,1.5-1.5,2.2-2.3c0.6-0.6,1.3-1.3,2-1.9c0.3-0.3,0.6-0.5,0.9-0.8
	c0.3-0.2,0.5-0.5,0.8-0.7c0.2-0.2,0.5-0.4,0.7-0.6c0.2-0.2,0.4-0.3,0.6-0.5c0.2-0.1,0.4-0.3,0.6-0.4c0.2-0.1,0.3-0.2,0.5-0.3
	c0.1-0.1,0.3-0.2,0.4-0.2c0.1-0.1,0.2-0.1,0.4-0.2c0.2-0.1,0.4-0.1,0.5-0.2c0.1,0,0.3-0.1,0.4-0.1c0.1,0,0.3,0,0.4,0
	c0.1,0,0.3,0,0.4,0c0.1,0,0.1,0,0.2,0h0.1h0.1h0.1h0.1c0,0,0.1,0,0.1,0.1c0.1,0.1,0.2,0.1,0.3,0.2c0.2,0.1,0.3,0.3,0.5,0.4
	c0.2,0.2,0.4,0.4,0.6,0.6c0.2,0.3,0.5,0.6,0.7,0.9c0.3,0.3,0.5,0.7,0.8,1.1c0.3,0.5,0.6,0.9,0.9,1.4c0.3,0.4,0.5,0.8,0.8,1.2
	c0.2,0.4,0.5,0.8,0.7,1.2c0.3,0.5,0.6,1.1,0.9,1.7c0.2,0.4,0.4,0.7,0.6,1.1c-0.6-0.3-1.3-0.6-2-0.7c-0.5-0.1-1-0.1-1.4-0.1
	c-0.2,0-0.5,0-0.7,0.1c-0.2,0-0.3,0.1-0.5,0.1c-0.3,0.1-0.6,0.1-0.8,0.2c-0.1,0.1-0.3,0.1-0.4,0.2c-0.2,0.1-0.3,0.1-0.4,0.2
	c-0.3,0.2-0.6,0.3-0.9,0.5c-0.4,0.2-0.7,0.5-1,0.7c-0.4,0.3-0.8,0.6-1.2,0.9c-0.5,0.4-0.9,0.8-1.4,1.2c-0.5,0.5-1.1,1-1.6,1.5
	c-0.6,0.6-1.3,1.2-1.9,1.8c-0.7,0.7-1.4,1.3-2.1,2c-0.7,0.7-1.5,1.4-2.2,2.2c-1,1-2,2-3.1,3.1c-1.4,1.4-2.8,2.8-4.1,4.2
	c-0.8,0.8-1.6,1.7-2.4,2.5c-0.4,0.5-0.8,0.9-1.3,1.4c-0.3,0.4-0.7,0.8-1,1.1c-0.3,0.3-0.5,0.6-0.8,1c-0.2,0.3-0.4,0.6-0.6,0.9
	c-0.1,0.1-0.2,0.3-0.2,0.4c-0.1,0.2-0.1,0.3-0.2,0.5s-0.1,0.4-0.1,0.5c0,0.2,0,0.3,0,0.5c0,0.1,0,0.2,0,0.3c0,0.1,0,0.2,0,0.3
	c0,0.2,0.1,0.4,0.2,0.6c0,0.1,0.1,0.2,0.2,0.3c0.1,0.1,0.1,0.2,0.2,0.3c0.1,0.2,0.3,0.4,0.5,0.5s0.4,0.3,0.6,0.4
	c0.1,0.1,0.3,0.1,0.4,0.2c0.2,0.1,0.4,0.1,0.5,0.2c0.2,0,0.4,0.1,0.5,0.1c0.2,0,0.4,0.1,0.6,0.1c0.4,0,0.8,0.1,1.2,0.1
	c0.6,0,1.2,0.1,1.7,0.1c0.8,0,1.5,0,2.3,0c1.1,0,2.2,0,3.2,0c1.2,0,2.4,0,3.6-0.1c1.3,0,2.7-0.1,4-0.1c2.9-0.1,5.8-0.1,8.8-0.2
	c2.8-0.1,5.6-0.1,8.4-0.2c2.2-0.1,4.4-0.1,6.6-0.1c0.8,0,1.6,0,2.4,0c0.6,0,1.3,0,1.9,0c0.6,0,1.3,0,1.9,0c0.3,0,0.6,0,1,0
	c0.2,0,0.5,0,0.7,0s0.4,0,0.5,0.1c0.1,0,0.3,0,0.4,0.1c0.1,0,0.2,0,0.3,0.1c0.1,0,0.2,0.1,0.2,0.1c0.1,0,0.1,0.1,0.2,0.1
	c0.1,0,0.1,0.1,0.2,0.1c0.1,0.1,0.2,0.1,0.2,0.2c0.1,0.1,0.2,0.2,0.3,0.3c0.1,0.1,0.2,0.3,0.4,0.4c0.1,0.2,0.3,0.3,0.4,0.5
	c0.3,0.4,0.6,0.8,0.8,1.2C170.6,78.6,168,78.6,163.6,78.6z"/>
<path class="st9" d="M130.5,81.2c-0.2,3.1-0.4,6.3-0.5,9.8c-0.9,0-1.8,0-2.6,0c0.2-3.5,0.4-6.7,0.6-9.7
	C128.7,81.2,129.6,81.2,130.5,81.2z"/>
<path class="st9" d="M138.8,34.2c2.7-8.9,5.9-17.6,9.7-26.7c-0.8,0-1.6,0.1-2.4,0.1c-4.7,11.5-7.8,20.3-10.3,28.6
	C137,35.2,138,34.6,138.8,34.2z"/>
<path class="st9" d="M131.1,73.8c0.6-6.3,1.3-11.8,2.2-16.8c-1,1-2.1,2-3.1,3.1c-0.6,4-1.2,8.5-1.7,13.8
	C129.3,73.9,130.2,73.9,131.1,73.8z"/>
<path class="st10" d="M79.6,94.8C62.7,63.4,62.3,63.2,62,63.7c-0.2,0.4-0.3,1.4-6.7,37.7c2.4-0.7,5.7-1.9,10.3-3.2
	C69.6,97,74.5,95.8,79.6,94.8z"/>
<path class="st9" d="M52.3,101.9c6.9-37.6,9-46,10.8-51.9c1.8-5.9,3.3-9.5,5.2-12.7c1.9-3.2,4-6.2,6.2-8.4s4.4-3.7,8.6-5.5
	s10.4-4,18.1-6.3s17.1-4.7,23.4-6.3c0.3-0.1,0.6-0.2,0.9-0.2c5.8-1.5,8.9-2.3,10.1-4.9c-1.7,0.2-3.6,0.3-5.4,0.6
	c-4.2,0.5-8.5,1.4-14.5,2.9s-13.7,3.7-20.1,5.5c-6.4,1.8-11.4,3.3-15.3,5.1c-3.9,1.8-6.8,4-9.3,6.7s-4.9,5.6-7,9.5
	s-3.9,8.5-6.3,17.4c-2.4,8.9-5.3,22.1-10.3,48.7c1.4-0.3,2.2-0.2,3-0.1C50.9,102,51.5,102,52.3,101.9z"/>
<path class="st9" d="M148.5,7.5c-6.1,0.2-13.3,0.9-23,3c5.8-1.5,8.9-2.3,10.1-4.9c2.2-0.2,4.1-0.3,5.7-0.6c2.9-0.4,4.5-0.9,6.4-1.8
	c0.6-0.2,1.1-0.5,1.7-0.8C148.6,4.4,148.3,6,148.5,7.5z"/>
<path class="st11" d="M149.5,2.5c-0.9,1.9-1.2,3.5-1,5c2.4-0.1,4.6-0.1,6.7,0c4.1,0.1,7.9,0.3,12.1,0.2c3.7-0.1,7.7-0.3,12.5-1
	c-0.6-0.1-1.1-0.1-1.6-0.2c-4-0.4-6.1-0.4-7.5-0.7c-1.4-0.3-2.2-0.9-3.9-1.9s-4.4-2.5-6.7-3.3s-4.2-0.6-6.2,0
	C152.5,1.1,150.9,1.8,149.5,2.5z"/>
<path class="st9" d="M190.6,10.4c4.9,1,13.5,5.1,19.5,8.3s9.3,5.6,11.9,7.7s4.3,4,6.4,7.2c2,3.2,4.3,7.6,6.5,13.5s4.2,13.1,5.7,19.6
	s2.5,12.3,3.6,19.4c1.1,7,2.3,15.3,3.5,34c-0.5-0.3-1.3-0.7-2.7-1.3c-0.9-17.1-2.8-30-4.5-39.4s-3-15.3-4.5-20.8s-3.2-10.7-5-14.9
	s-3.6-7.5-5.8-10.4s-4.6-5.4-7.8-7.8s-7.2-4.6-10.8-6.4s-6.7-3.2-11.1-5.1c-4.3-1.9-9.8-4.3-14.5-4.9C184.9,9.4,188,9.9,190.6,10.4z
	"/>
<path class="st12" d="M263.5,127.5c-5.2-2.5-10.5-5-15.7-7.4c0.5,0.3,0.7,0.4,0.8,0.6c0.3,0.4,0.3,0.8-0.1,1.3
	c-0.2,0.2-0.5,0.4-0.9,0.5c6,2.6,11.3,4.9,15.9,7C263.5,128.8,263.5,128.2,263.5,127.5z"/>
<path class="st1" d="M121,126.8c7.8,0,15.2,0.1,23.5,0.4c8.6-1.3,16.7-1,24.5-0.7s15.3,0.4,22.7,0.3s14.6-0.6,20.2-1.3
	c5.7-0.7,9.8-1.7,12.6-2s4.2,0.2,5.3,4.2c0.5-0.2,0.9-0.4,1.4-0.6c0.9-0.4,1.7-0.8,2.5-1.1c-1.2-2.1,2.3-2.9,4.8-3.3
	c2.4-0.5,3.8-0.7,4.6-1s1.1-0.8-0.2-1.7c-1.3-0.9-4.2-2.2-9.5-4.3c-5.4-2.1-13.2-5-22.1-7.7c-8.9-2.8-18.9-5.4-28.3-7.6
	c-9.4-2.2-18.4-3.9-26.2-4.9s-14.5-1.4-21.7-1.7c-7.1-0.2-14.6-0.3-21.6-0.1c-7,0.2-13.4,0.7-19.9,1.5c-0.9,0.1-1.7,0.2-2.6,0.4
	c-13.3,4.1-17.9,6.9-22,9.9s-7.7,6.3-10.4,8.9s-4.4,4.6-5.7,6.3c-1.3,1.6-2.3,2.9-1.7,3.4s2.7,0.1,11.2-0.7c8.5-0.8,23.3-2.2,35.6-3
	s22.1-0.9,32.2-0.5s20.6,1.4,31.2,2.3c10.6,0.9,21.3,1.6,26.2,2.2c5,0.6,4.2,1,0.3,1s-10.8-0.4-19.6-0.6s-19.4-0.3-29.7-0.3
	C128.2,124.2,118.1,124.1,121,126.8z"/>
<path class="st4" d="M90.9,95.5c-13.3,4.1-17.9,6.9-22,9.9s-7.7,6.3-10.4,8.9s-4.4,4.6-5.7,6.3c-1.3,1.6-2.3,2.9-1.7,3.4
	s2.7,0.1,11.2-0.7c8.5-0.8,23.3-2.2,35.6-3s22.1-0.9,32.2-0.5s20.6,1.4,31.2,2.3c10.6,0.9,21.3,1.6,26.2,2.2c5,0.6,4.2,1,0.3,1
	s-10.8-0.4-19.6-0.6s-19.4-0.3-29.7-0.3c-10.3-0.1-20.5-0.1-17.5,2.6c-1.6,0-3.2,0-4.8,0c-0.9,0-1.8,0-2.8,0s-2,0-3.1,0
	c-4,0-8,0.1-12.1,0.2c-1.3,0-2.6,0.1-3.9,0.1c-2.1,0-4.1,0.1-6.2,0.2c-1.3,0-2.7,0.1-4,0.1c-2.1,0.1-4.2,0.2-6.3,0.3
	c-2,0.1-4,0.2-5.9,0.4c-1,0.1-1.9,0.1-2.9,0.2c-5.8,0.5-11.2,1-16.3,1.7c-0.8,0.1-1.6,0.2-2.4,0.3c-1.3,0.2-2.6,0.4-3.9,0.6
	c-1.4,0.2-2.8,0.5-4.2,0.8c-1.5,0.3-3,0.6-4.5,0.9c-1.8,0.4-3.5,0.8-5.2,1.2c-7-0.3-13.2,1.2-17.3,2.2s-6.2,1.4-7.6,1.6
	s-2.1,0-2.4-0.7s-0.3-2.1,0.3-3.8s1.8-3.8,4.6-6.4c2.8-2.6,7.1-5.7,11.5-8.6c4.3-2.9,8.7-5.6,12.4-7.6s7-3.5,9.5-4.2
	s4.2-0.7,5.9-0.7s3.3-0.1,5.1-0.7s3.6-1.8,6.8-3c3.2-1.1,7.6-2.3,13.2-3.4C79.5,97.4,85.2,96.3,90.9,95.5z"/>
<path class="st12" d="M246.3,122.9c1.2-0.3,1.8-0.6,2.2-0.9c0.5-0.4,0.5-0.9,0.1-1.3c-0.3-0.4-1-0.7-4.6-2.5
	c-3.6-1.7-10-4.9-17.8-7.8c-7.8-3-16.8-5.7-26.2-8.3c-9.4-2.6-19.1-5.1-27.7-6.8c-8.6-1.7-16.2-2.7-24.1-3.4c-7.9-0.6-16.2-0.9-24-1
	c-7.7-0.1-14.9,0.1-21.8,0.7c-6.9,0.5-13.4,1.5-19.7,2.6c-6.3,1.2-12.3,2.6-17,3.9s-8.1,2.6-10.5,3.3c-2.4,0.6-3.7,0.6-4.9,0.6
	s-2.4-0.2-6.1,0.9c-3.8,1.1-10.1,3.5-16.1,6.5c-5.9,3-11.4,6.7-15.8,10.2s-7.6,6.7-9.6,9.5c-1.9,2.8-2.6,5.1-2.6,6.9
	c0,1.8,0.5,3.1,1.9,3.8s3.7,0.7,7,0c3.3-0.6,7.6-1.9,13.8-3.6c2.9-0.8,6.1-1.6,9.7-2.4c-7-0.3-13.2,1.2-17.3,2.2s-6.2,1.4-7.6,1.6
	s-2.1,0-2.4-0.7s-0.3-2.1,0.3-3.8s1.8-3.8,4.6-6.4c2.8-2.6,7.1-5.7,11.5-8.6c4.3-2.9,8.7-5.6,12.4-7.6s7-3.5,9.5-4.2
	s4.2-0.7,5.9-0.7s3.3-0.1,5.1-0.7s3.6-1.8,6.8-3c3.2-1.1,7.6-2.3,13.2-3.4c5.6-1.2,12.2-2.4,18.8-3.3s12.9-1.3,19.9-1.5
	s14.5-0.1,21.6,0.1c7.1,0.2,13.8,0.6,21.7,1.7c7.8,1,16.7,2.8,26.2,4.9c9.4,2.2,19.4,4.8,28.3,7.6c8.9,2.8,16.8,5.6,22.1,7.7
	c5.4,2.1,8.2,3.4,9.5,4.3s1,1.4,0.2,1.7c-0.8,0.3-2.1,0.6-4.6,1c-2.4,0.5-5.9,1.2-4.8,3.3c1.4-0.7,2.8-1.3,4.4-1.7
	c2.4-0.7,5.2-0.9,7.1-1.2C245.6,123,246,123,246.3,122.9z"/>
<path class="st12" d="M167.3,7.7c16.1,1.2,23.5,2.6,30.1,4.1c6.5,1.5,12.1,3,17.5,4.9s10.4,4.2,14.5,6.7s7.2,5.3,10.1,8.7
	c2.9,3.4,5.6,7.5,7.9,11.5c2.2,4,4,7.9,5.7,12.7c1.7,4.9,3.4,10.7,4.6,15.7s2,9.2,2.8,14.9c0.8,5.7,1.6,12.8,2.2,20.1
	c0.5,7.3,0.8,14.8,0.8,22.6c1.3,0.6,2.5,1.1,3.6,1.7c0-1.1,0.1-2.2,0.1-3.4c0.2-9.4-0.4-18.5-1.1-26.9c-0.8-9.4-1.9-17.9-3.3-25.2
	c-1.4-7.2-3.2-13.2-5-18.7c-1.9-5.5-3.9-10.6-6.6-15.5c-2.7-4.8-6-9.4-9.4-13.1c-3.4-3.6-7-6.3-11.5-8.8c-4.5-2.4-10-4.6-16.1-6.5
	c-6.2-1.8-13-3.3-19.5-4.5c-5.6-1-10.9-1.7-14.8-2.1C175.1,7.3,171,7.6,167.3,7.7z"/>
<path class="st13" d="M198.8,193.1c0-13.5,0-27.1,0-40.6c-2.1-1.6-4-2.7-5.7-3.2c0,11.8,0,23.5,0,35.3c0,3.3-2.7,6-6,6
	c-0.1,0-0.2,0-0.2,0c-3.3,0-6-2.7-6-6c0-12.1,0-24.1,0-36.2c-4.7,1-10,4.4-14.5,7.3c0,19.2,0,26.1,0,30.3c0,2.8,0,4.3,0.1,5.3
	c0,0.6,0.1,0.9,0.3,1.2c0.3,0.7,1,0.7,6.9,0.7C177.3,193,184.4,193,198.8,193.1z"/>
<path class="st14" d="M198.8,193.1c0-13.5,0-27.1,0-40.6c0.5,1.9,1,3.9,1.2,8c0.3,4.4,0.3,11-0.1,32.6
	C199.5,193.1,199.1,193.1,198.8,193.1z"/>
<path class="st15" d="M198.8,152.5c-2.1-1.6-4-2.7-5.7-3.2c0-0.6,0-1.2,0-1.9c0-3.3-2.7-6-6-6c-0.1,0-0.2,0-0.2,0c-3.3,0-6,2.7-6,6
	c0,0.3,0,0.7,0,1c-4.7,1-10,4.4-14.5,7.3c0-1.3,0-2.6,0-4c0-0.1,0.1-0.1,0.1-0.2c0.5-1.2,0.9-3.3,1.5-4.9c0.6-1.6,1.5-2.7,2.9-3.8
	s3.3-2.1,5.3-2.8c2.1-0.7,4.3-1.2,6.5-1.4s4.3-0.1,6.1,0.5c1.8,0.5,3.2,1.4,4.5,2.7s2.5,2.9,3.4,4.6c0.9,1.8,1.6,3.7,2.1,5.7
	C198.7,152.2,198.7,152.4,198.8,152.5z"/>
<path class="st16" d="M199.9,193.1c-15.1-0.1-22.5-0.1-26.3,0c-3.2,0.1-3.8,0.2-4.1,0.3c-0.8,0.3-0.7,0.7-0.3,1.3
	c0.3,0.4,0.8,0.9,3.6,1.2c0.7,0.1,1.5,0.1,2.5,0.2c5,0.2,14.2,0,19.6-0.2c5.4-0.2,7-0.4,7.8-0.7s0.9-0.9,0.8-6
	c-0.1-5.1-0.5-14.8-0.7-21.7s-0.2-10.9-0.7-13.7c-0.4-2.9-1.3-4.6-2.1-6.3c-0.9-1.7-1.8-3.2-3-4.7c-1.3-1.5-2.9-2.9-4.4-3.9
	s-2.8-1.6-5.6-1.8s-7.1-0.1-10.9,0.2c-3.7,2.1-7.2,4.2-10.4,6.1c-1.5,3.6-1.9,5.5-1.8,6.9c0.1,1.4,0.5,2.3,1,2.5
	c0.5,0.3,1.1-0.1,1.6-1.3s0.9-3.3,1.5-4.9c0.6-1.6,1.5-2.7,2.9-3.8s3.3-2.1,5.3-2.8c2.1-0.7,4.3-1.2,6.5-1.4s4.3-0.1,6.1,0.5
	c1.8,0.5,3.2,1.4,4.5,2.7s2.5,2.9,3.4,4.6c0.9,1.8,1.6,3.7,2.1,5.7s1.1,4,1.3,8.3C200.3,164.8,200.3,171.5,199.9,193.1z"/>
<path class="st17" d="M190.8,171.4c0,4.4,0,8.8,0,13.1c0,2-1.6,3.7-3.7,3.7c-0.1,0-0.2,0-0.2,0c-2,0-3.7-1.6-3.7-3.7
	c0-4.5,0-8.9,0-13.4c1.5,2.5,2.2,4.8,2.8,6.2c0.6,1.5,1.1,2.2,1.4,2.2c0.4,0,0.6-0.8,0.7-2c0.1-1.2,0.1-3,0.4-4.2
	C188.7,172.1,189.2,171.4,190.8,171.4z"/>
<path class="st0" d="M183.2,160.6c0-4.4,0-8.9,0-13.3c0-2,1.6-3.7,3.7-3.7c0.1,0,0.2,0,0.2,0c2,0,3.7,1.6,3.7,3.7c0,3.1,0,6.2,0,9.3
	c-2.8,2.7-3.7,3.6-4.6,4.1C185.3,161.2,184.6,161.3,183.2,160.6z"/>
<path class="st18" d="M190.8,156.6c-2.8,2.7-3.7,3.6-4.6,4.1c-0.9,0.5-1.6,0.5-3-0.1c0,3.5,0,7,0,10.5c1.5,2.5,2.2,4.8,2.8,6.2
	c0.6,1.5,1.1,2.2,1.4,2.2c0.4,0,0.6-0.8,0.7-2c0.1-1.2,0.1-3,0.4-4.2c0.2-1.2,0.7-2,2.3-2C190.8,166.5,190.8,161.6,190.8,156.6z"/>
<path class="st13" d="M110.8,155.2c-0.1,17.1-0.2,24.4-0.3,28.9c0,4.5,0,6.1,0,7.1s-0.2,1.2-0.5,1.4c-0.4,0.1-1,0.2-7,0.2
	c-0.1,0-0.3,0-0.5,0c-1.5,0-3.7,0-21.1,0c0-11.8,0-23.7,0-35.5c2-1.7,7.9-6.3,13.2-9.2c0,11.8,0,23.6,0,35.4c0,3.3,2.7,6,6,6
	c0.1,0,0.2,0,0.2,0c3.3,0,6-2.7,6-6c0-12.4,0-24.8,0-37.2c0-0.4,0-0.9-0.1-1.3c0.5,0,0.9,0.2,1.2,0.7c-0.6,2.9-0.9,4.7-0.8,5.7
	c0.1,1.1,0.5,1.1,2.3-1.4c0.8,2.7,0.8,3.9,1,4.5C110.4,155,110.5,155.2,110.8,155.2z"/>
<path class="st15" d="M81.4,145.3c0.3-0.7,0.6-1.4,1.1-2c0.9-1.4,2.3-2.6,3.6-3.6c1.3-1,2.7-1.7,4.3-2.3s3.5-1.1,7.8-0.5
	c1.6,1.1,3.3,2.2,5,3.4c1.6,1.1,3.3,2.2,5,3.4c-0.1,0.4-0.2,0.9-0.3,1.3c0,0.2-0.1,0.4-0.1,0.6c-0.3-0.5-0.7-0.7-1.2-0.7
	c-0.6-2.7-3-4.6-5.8-4.6c-0.1,0-0.2,0-0.2,0c-3.3,0-6,2.7-6,6c0,0.6,0,1.2,0,1.8c-5.3,2.9-11.2,7.6-13.2,9.2
	C81.4,153.2,81.4,149.3,81.4,145.3z"/>
<path class="st19" d="M112.3,147c0.3,4.9,0.3,6.4-0.1,7.2c-0.3,0.8-0.9,1-1.3,1.1c-0.4,0-0.6-0.1-0.8-0.8c-0.2-0.7-0.2-1.8-1-4.5
	c0.7-0.9,1.5-2.2,2.4-3.6C111.9,146.6,112.1,146.8,112.3,147z"/>
<path class="st18" d="M104.5,155.5c0,4.9,0,9.8,0,14.8c-1.6-0.1-2.1,0.7-2.3,2c-0.2,1.2-0.2,3-0.4,4.2c-0.1,1.2-0.4,2-0.7,2
	c-0.4,0-0.8-0.7-1.4-2.2s-1.3-3.7-2.8-6.2c0-3.5,0-7,0-10.5c1.4,0.6,2.2,0.6,3,0.1C100.7,159.1,101.7,158.2,104.5,155.5z"/>
<path class="st17" d="M96.9,170c1.5,2.5,2.2,4.8,2.8,6.2c0.6,1.5,1.1,2.2,1.4,2.2c0.4,0,0.6-0.8,0.7-2s0.1-3,0.4-4.2
	c0.2-1.2,0.7-2,2.3-2c0,4.4,0,8.8,0,13.1c0,2-1.6,3.7-3.7,3.7c-0.1,0-0.2,0-0.2,0c-2,0-3.7-1.6-3.7-3.7
	C96.9,178.9,96.9,174.4,96.9,170z"/>
<path class="st0" d="M104.5,155.5c-2.8,2.7-3.7,3.6-4.6,4.1s-1.6,0.5-3-0.1c0-4.4,0-8.9,0-13.3c0-2,1.6-3.7,3.7-3.7
	c0.1,0,0.2,0,0.2,0c2,0,3.7,1.6,3.7,3.7C104.5,149.3,104.5,152.4,104.5,155.5z"/>
<path class="st14" d="M79.1,192.7c0.8,0,1.5,0,2.3,0c0-15.8,0-31.6,0-47.4c-0.3,0.8-0.6,1.6-0.9,2.5c-0.5,1.6-1,3.3-1.2,5.7
	s-0.2,5.4-0.2,12C79.1,172.2,79.1,182.5,79.1,192.7z"/>
<path class="st8" d="M65.7,191.6c-1.4,2.2-1.8,2.1-2.4,1.3c-0.6-0.8-1.2-2.3-2.4-5.2s-2.9-7.2-4.2-11.7s-2.4-9.2-3-13.4
	c-0.6-4.3-0.8-8.2-0.9-10.4c0-2.2,0.2-2.7,0.6-2.5c0.4,0.2,1.1,1.2,1.8,2.5c0.6,1.2,1.2,2.8,2.9,2.8c-0.2-0.6-0.4-1.2-0.5-1.8
	c-1.1-3.6-2.1-6.4-2.8-8.2c-0.7-1.7-1.1-2.3-1.5-2.9c-0.5-0.5-1.1-1-1.4-0.8c-0.4,0.2-0.6,1.2-0.8,2.4s-0.4,2.6-0.5,4.2
	c-0.1,1.5-0.2,3.2-0.1,5c0.1,1.8,0.2,3.7,0.5,6.1c0.3,2.4,0.7,5.3,1.3,8.3s1.4,6.2,2.3,9c0.9,2.9,1.8,5.5,2.7,7.8s1.7,4.2,2.6,6.3
	c0.9,2.1,2,4.2,2.9,5.8c0.8,1.6,1.5,2.6,1.9,2.9c0.5,0.3,0.8-0.2,0.9-2C65.5,195.7,65.6,193.6,65.7,191.6z"/>
<path class="st20" d="M61.7,168.6c-0.2,8.5,0.7,11.7,1.4,14.9s1.1,6.3,2.6,8.1c0-0.7,0-1.4,0-2c0-2.5,0-4.3-0.4-6.4
	c-0.4-2.1-1-4.4-1.8-7.4C63,173.7,62.3,171.3,61.7,168.6z"/>
<path class="st7" d="M172.8,195.8c-1,1.4-2,2.7-3,4.1c-1.6,0.3-3.1,0.6-4.2,0.9c-1.6,0.4-2.4,0.8-2.7,1.2c-3.5-3.6-7-6.6-8.9-8.2
	c-1.9-1.7-2.2-2.1-2.1-2.4s0.5-0.5,14.5-0.1c0,0.6,0.1,0.9,0.3,1.2c0.3,0.7,1,0.7,6.9,0.7c-3.2,0.1-3.8,0.2-4.1,0.3
	c-0.8,0.3-0.7,0.7-0.3,1.3C169.5,195.1,170,195.6,172.8,195.8z"/>
<path class="st7" d="M162.9,202.8c-2.9,0.9-3,1.5-2.8,2s0.7,0.9,1.8,0.9s2.9-0.5,4.4-0.9c1.5-0.5,2.7-1,3.8-1.4s2.1-0.8,3.3-1
	s2.6-0.3,3.6-0.5c1.1-0.3,1.8-0.7,1.7-1.8c-1.8,0.3-4.1,0.9-6.6,1.6c-2.7,0.7-5.5,1.6-7.2,1.7C163.7,203.4,163.1,203.1,162.9,202.8z
	"/>
<path class="st8" d="M102,202.1c1.8-0.2,5.4-0.3,7.2-0.2c1.8,0.1,1.8,0.4,1.7,0.6c-0.2,0.2-0.5,0.3-1.4,1.1s-2.2,2.2-3.1,2.8
	c-0.8,0.6-1.2,0.4-1.8-0.2c-0.6-0.6-1.5-1.5-2.4-2.1c-0.8-0.6-1.5-0.9-1.9-1.2S100.2,202.3,102,202.1z"/>
<path class="st6" d="M164.9,203.3c1.7-0.1,4.5-1,7.2-1.7s5.4-1.3,7.1-1.7c1.8-0.3,2.7-0.4,3.2-0.3c0.5,0.1,0.5,0.3,0,0.7
	s-1.4,1-2.4,1.6s-2,1.1-2.5,1.8s-0.4,1.4-0.1,2c0.3,0.6,0.8,0.9,2,0.7s3-1,5.6-1.6c2.7-0.7,6.2-1.2,9.2-1.5s5.3-0.3,7.1-0.5
	c1.7-0.2,2.8-0.6,3.3-1.2c0.5-0.6,0.4-1.3-0.4-1.8c-0.8-0.5-2.4-0.6-5.3-0.2c-2.8,0.4-6.9,1.4-9.8,2.1c-2.9,0.7-4.5,1.1-5.3,1.1
	s-0.8-0.2,0-0.8s2.3-1.5,3.1-2.2c0.8-0.8,0.7-1.4,0.3-1.8c-0.4-0.4-1.3-0.6-3.5-0.3c-2.2,0.2-5.6,0.8-9.1,1.4
	c-3.4,0.6-6.9,1.3-9,1.8c-2.1,0.6-2.8,1-2.9,1.5S163.2,203.4,164.9,203.3z"/>
<path class="st6" d="M75.7,202.8c1.5-0.2,4.2-1.1,6.3-1.7c2.1-0.6,3.7-1,5.4-1.2c1.7-0.1,3.5,0,4.6-0.1s1.4-0.4,1.4-0.8
	c0-0.4-0.2-0.9-1.7-1.1c-1.4-0.2-4-0.2-6.4,0.4s-4.6,1.5-6.5,2.2c-2,0.7-3.7,1.1-4.4,1.6C73.7,202.5,74.2,203,75.7,202.8z"/>
<path class="st6" d="M90.2,204.1c1.9-0.2,5.4-1.1,8.5-1.7c3.2-0.6,6-1,7.9-1.3c1.9-0.4,2.8-0.7,3.2-1.2c0.4-0.4,0.4-1-0.3-1.2
	c-0.7-0.3-1.9-0.3-5.4,0.3s-9.1,1.9-12.2,2.7s-3.7,1.2-3.8,1.7C88,203.7,88.3,204.3,90.2,204.1z"/>
<path class="st16" d="M96.2,135.6c-3.6-0.4-5.6,0-7.6,0.7s-4,1.6-5.6,3s-2.9,3.3-3.8,5.4c-0.9,2.1-1.4,4.6-1.6,8.4
	c-0.3,3.8-0.3,9.1-0.4,16.2c-0.1,7.1-0.2,16.1-0.3,20.6c-0.1,4.5-0.1,4.7,0,4.7c0.1,0.1,0.3,0.1,4.6,0.1c4.3,0,12.8,0,17.6-0.1
	c4.8-0.1,6-0.2,6.6-0.5c0.5-0.3,0.4-0.8-0.1-1.1s-1.4-0.3-3-0.3s-3.8,0-23.4,0c0-10.3,0-20.6,0-27.2c0-6.7,0-9.7,0.2-12
	c0.2-2.4,0.7-4.1,1.2-5.7s1-3.1,1.9-4.5s2.3-2.6,3.6-3.6c1.3-1,2.7-1.7,4.3-2.3s3.5-1.1,7.8-0.5C97.5,136.5,96.8,136,96.2,135.6z"/>
<path class="st21" d="M128,190.3c0-2.1,0-3.6-0.1-4.5s-0.5-1.2-0.9-1.7s-0.9-1.1-1.2-1.4c-0.3-0.3-0.4-0.4-0.6,0s-0.3,1.3-0.8,2.7
	s-1.4,3.3-2.8,5.3s-3.2,4.3-4.4,5.8c-1.2,1.5-1.6,2.3-1.2,3.2c0.5,0.8,1.9,1.7,3.3,2.4s2.9,1.1,4.1,1.8c1.3,0.7,2.4,1.6,3.2,2
	c0.9,0.4,1.5,0.4,2.2,0.2c0.6-0.3,1.2-0.7,1.3-1.5c0.2-0.8-0.1-1.9-0.5-2.6c-0.4-0.8-0.9-1.2-1.1-1.9c-0.2-0.7-0.2-1.6-0.3-3.3
	C128.2,194.9,128,192.3,128,190.3z"/>
<path class="st6" d="M125.2,186.5c0.5,0.2,1.6,1.1,2.2,1.7c0.6,0.6,0.6,0.9,0.5,3.8c-0.1,2.9-0.3,8.4-0.5,11
	c-0.2,2.7-0.4,2.5-0.9,1.7s-1.4-2.2-1.8-3.1c-0.5-0.9-0.6-1.4-0.5-3s0.4-4.4,0.5-6.4s0.1-3.3,0.1-4.3
	C124.7,187,124.7,186.4,125.2,186.5z"/>
<path class="st6" d="M271.1,158.7c-0.1-3.5-0.2-6.4-1.3-9.8c-1.1-3.4-3.2-7.2-5.5-10c-2.2-2.8-4.6-4.7-7-5.9s-4.8-1.7-7.1-1.3
	c-2.4,0.4-4.7,1.6-9.6,5.6c-0.9,3.1-1.5,5.6-1.9,7.8c1.3-2.1,2.1-3.2,3.2-4.5c1.5-1.9,3.4-4.1,5.6-5.2c2.2-1.1,4.8-1,7-0.3
	s4.2,2.1,6.1,4.4c1.9,2.3,3.9,5.7,5.1,9c1.2,3.4,1.6,6.7,1.8,10.1c0.2,3.4,0.4,6.8,0,9.9c-0.4,3-1.3,5.6-3.5,9.3
	c-2.3,3.7-6,8.4-8.9,11.8c-2.9,3.4-5,5.6-7,7.3c-2.1,1.7-4.1,3-5.9,3.8c-1.8,0.8-3.4,1.1-4.5,0.9c-1.1-0.2-1.6-0.9-1.6-2
	c-0.1-1.1,0.3-2.6,1-4c0.8-1.5,1.9-3,3.6-4.6c1.7-1.6,4.1-3.4,6.8-5.5s5.9-4.7,8.1-6.8c2.3-2.1,3.6-3.8,4.6-5.9s1.5-4.7,1.7-7.1
	c0.2-2.4,0.1-4.6-0.1-6.9c-0.3-2.3-0.7-4.7-1.5-6.8s-2-3.8-3.4-5.2s-2.9-2.4-4.4-2.6c-1.5-0.2-2.9,0.5-4.4,1.6s-2.9,2.7-4,4.7
	s-1.7,4.5-2.3,6.8c-0.5,2.3-0.9,4.5-0.7,5.8s0.9,1.6,1.3,2.2c0.4,0.6,0.5,1.6,0.6,3.1c0,1.5-0.1,3.6-0.2,5.1
	c-0.2,1.5-0.4,2.4-0.8,2.9c-0.4,0.5-1.1,0.7-1.8,1.1c-0.7,0.4-1.3,1.1-1.4,1.7c-0.1,0.6,0.4,1.1,1.1,1.3c0.7,0.2,1.5,0.2,2.3-0.5
	s1.6-2,2.2-3.4c0.6-1.4,0.8-2.9,1.1-4s0.5-1.7,0.9-2.1c0.4-0.4,0.9-0.5,1.6-0.5c0.7,0.1,1.5,0.4,2.2,0.9c0.7,0.6,1.2,1.4,1.5,2.5
	c0.2,1.1,0.2,2.4,0.1,3.5c-0.1,1-0.3,1.8-1.3,2.8s-2.7,2.3-5.1,4.2c-2.4,1.9-5.5,4.5-7.6,6.4c-2.2,1.9-3.5,3.2-4.4,4.7
	s-1.3,3.2-1.3,4.6c0.1,1.4,0.7,2.4,1,3.4s0.2,2.1-0.5,3.4c-0.7,1.4-1.9,3-4.9,6s-7.6,7.2-12.6,11.1c-5,3.9-10.5,7.6-16,11.2
	c-5.5,3.6-11.1,7.3-16.3,10.3s-10,5.4-14.6,7.3c-4.7,1.9-9.2,3.3-12.6,4.1c-3.4,0.8-5.7,1-8.2,0.9s-5.2-0.3-8.3-1
	c-3-0.6-6.4-1.6-11.3-3.6c-4.9-2-11.4-5-17.6-8s-12.1-6.1-17.5-9.5s-10.4-7.2-14-10.6c-3.6-3.4-5.7-6.3-7.2-8.9
	c-1.5-2.6-2.3-4.7-2.8-7.1c-0.5-2.3-0.8-4.8-0.8-8.5c0-3.6,0.3-8.4,0.4-11.8c0.1-3.4-0.1-5.5-0.7-7.9s-1.6-5.2-3.8-14.5
	c-0.4,1.6-0.9,3.3-1.4,5.2c0.4,1.6,0.8,3.2,1.2,4.6c0.8,3,1.5,5.3,1.8,7.4c0.4,2.1,0.4,3.9,0.4,6.4s-0.1,5.7-0.3,7.5
	c-0.2,1.8-0.5,2.3-0.9,2c-0.5-0.3-1.1-1.3-1.9-2.9c-0.8-1.6-1.9-3.8-2.9-5.8c-0.9-2.1-1.8-4-2.6-6.3c-0.9-2.3-1.8-4.9-2.7-7.8
	c-0.9-2.9-1.7-6-2.3-9s-1-5.9-1.3-8.3c-0.3-2.4-0.4-4.3-0.5-6.1s0-3.4,0.1-5c0.1-1.5,0.3-3,0.5-4.2s0.4-2.1,0.8-2.4
	c0.3-0.2,0.6,0,1,0.3c-0.5-0.5-0.9-0.9-1.2-1c-0.9-0.4-1.8-0.3-2.5,0.1c-0.8,0.4-1.2,1.2-1.6,3.2c-0.4,2-0.6,5.2-0.6,9.3
	s0.3,9.1,1.3,14.1c0.9,5,2.5,10,4,14.7c1.6,4.6,3.2,8.8,5.1,12.4c1.9,3.6,4.2,6.5,5.5,8.5c1.3,1.9,1.5,2.9,1.6,4.7s0,4.4,1.1,7.4
	s3.3,6.4,6.8,10.1c3.4,3.7,8.1,7.8,14,11.8c6,4,13.3,7.8,21,11.2s15.8,6.3,21.8,8.2c6,1.9,9.8,2.9,13.6,3.3s7.7,0.2,11.9-0.5
	c4.3-0.7,8.9-2,12.9-3.4c4-1.3,7.2-2.8,11.2-4.3c4-1.6,8.9-3.3,15.5-7s15-9.5,29.2-21c12.8-11.8,13.1-13.1,13.4-14.1
	c0.3-1,0.7-1.6,2.1-2.4c1.4-0.8,3.7-1.8,6.2-3.2c2.5-1.5,5-3.5,7.5-5.5c2.4-2.1,4.7-4.2,7.3-7.4s5.5-7.4,7.5-11s3-6.5,3.4-10
	C271.3,166.1,271.2,162.2,271.1,158.7z M245.4,155.5c0.2-1.1,0.4-2.8,1.1-4.3c0.6-1.4,1.6-2.5,2.7-3.3c1.1-0.7,2.4-1.1,3.4-1
	s1.8,0.7,2.5,1.6c0.8,0.9,1.6,2.1,2.1,3.4c0.5,1.3,0.8,2.8,1,4s0.3,2.3,0.3,3s-0.2,1-1,0.7s-2.1-1.2-3.4-2s-2.4-1.4-3.5-1.7
	s-2.3-0.3-3.2,0s-1.7,0.9-2,1C245.2,157,245.3,156.6,245.4,155.5z M248.7,167.6c-1.3-0.3-2.2-0.3-2.9-0.9c-0.7-0.5-1-1.5-1.2-2.4
	s-0.2-1.6,0.1-2.4c0.3-0.7,0.9-1.5,1.7-1.9s1.9-0.6,3.3-0.5c1.3,0.1,2.9,0.6,4.2,1.3s2.4,1.7,3.2,2.3c0.7,0.5,1.1,0.6,1.4,0.9
	c0.3,0.3,0.6,0.9,0.7,2c0,1.1-0.2,2.7-0.7,4.2s-1.4,3.1-2.1,4.1c-0.8,1-1.5,1.6-1.8,1.2c-0.3-0.4-0.2-1.9-0.3-3.1
	c-0.2-1.3-0.6-2.4-1.6-3.2C251.5,168.3,250,167.8,248.7,167.6z"/>
<path class="st22" d="M124.6,213c4,0,8.9,0.1,14.4,0.1c9.9,0,21.5,0,27.4,0.1s6.1,0.2,6.1,0.5s-0.1,0.7-0.7,2.6
	c-0.6,1.9-1.7,5.2-3.1,8.1c-0.7,1.5-1.5,2.9-2.3,4.2c-0.2-4.4-0.4-5.9-1.4-6.8c-0.9-0.9-2.6-1.1-6.6-1.2c-4-0.1-10.3-0.2-16.2,0.5
	c-5.9,0.6-11.3,2-21.2,9.6c-0.2-0.2-0.3-0.4-0.5-0.6C120.4,217.2,121.1,215,124.6,213z"/>
<path class="st23" d="M124.6,213c-3.5,1.9-4.2,4.1-4,17.1c-2.3-2.9-3.9-5.1-5.1-6.8c-1.2-1.9-1.9-3.1-2.3-4.3
	c-0.5-1.1-0.7-2.2-0.8-3c-0.1-0.9-0.1-1.5-0.1-2s0-0.7,0.1-0.9c0.1-0.1,0.1-0.2,4.3-0.1C118.5,213,121.3,213,124.6,213z"/>
<path class="st24" d="M121,230.7c9.9-7.6,15.3-9,21.2-9.6s12.2-0.6,16.2-0.5s5.7,0.4,6.6,1.2c0.9,0.9,1.1,2.4,1.4,6.8
	c-0.9,1.4-1.8,2.7-3,4.1c-2.2,2.8-5,5.9-7.6,8.5c-2.6,2.7-5,5-6.9,6.3c-1.9,1.4-3.4,1.8-4.5,2c-1.2,0.2-2,0.2-3.3,0
	c-1.2-0.2-2.9-0.6-4.6-1.8c-1.8-1.2-3.7-3.2-6.5-6.3C127.3,238.3,123.8,234.1,121,230.7C121.2,230.9,121.1,230.8,121,230.7z"/>
<path class="st2" d="M129.8,165.3c-0.7-10.6-0.7-13.3-0.5-14.8c0.2-1.6,0.7-2,2.5-1.9s4.9,0.9,9.4,2.9c-4.1,5.1-7.8,9.4-10.2,12.3
	C130.6,164.4,130.2,164.9,129.8,165.3z"/>
<path class="st2" d="M247.6,122.5c6,2.6,11.3,4.9,15.9,7c1.3,0.6,2.5,1.1,3.6,1.7c7.6,3.5,13.1,6.3,17,8.3c6.7,3.5,8.5,4.8,9.2,5.6
	s0.2,1.1-2.3,1.2c-2.5,0-7.1-0.2-10.3-0.3c-3.1-0.1-4.9-0.1-5.7,0.1c-0.9,0.2-0.9,0.6,0.8,1.7c1.6,1.1,4.9,2.9,8.2,5
	c2.4,1.5,4.8,3.1,7.6,5.1c3.8,5.1,9.3,9.5,12.7,12.3c3.5,2.9,4.9,4.2,5.2,4.9c0.2,0.8-0.8,1-4.6,0c-3.8-0.9-10.3-3-33.7-10.2
	c0-2.1,0-4.1-0.1-6c-0.1-3.5-0.2-6.4-1.3-9.8c-1.1-3.4-3.2-7.2-5.5-10c-2.2-2.8-4.6-4.7-7-5.9s-4.8-1.7-7.1-1.3
	c-2.4,0.4-4.7,1.6-9.6,5.6c1.1-3.8,2.9-8.4,5.7-14.4C246.8,122.8,247.2,122.6,247.6,122.5z"/>
<path class="st2" d="M40.1,144.9c-3.3-1.4-5.3-0.5-7.1,0.4s-3.4,1.9-4.1,2.1c-0.7,0.2-0.6-0.3,0.7-1.7c1.3-1.5,3.8-4,6.7-6.3
	c2.8-2.3,6-4.4,6.1-7.6c-1.5,0.3-3,0.6-4.5,0.9c-9.8,10.3-13.3,14.4-15.4,17s-2.8,3.8-3.2,4.5c-0.4,0.7-0.4,1.1,1.4,0.2
	c1.8-0.9,5.3-2.9,9.5-5.2C32.9,147.7,35.9,146,40.1,144.9z"/>
<path class="st2" d="M17.6,187.9c3.9-0.5,4.4-1,4.2-1.5c-0.1-0.4-0.9-0.8-2-1.2s-2.7-0.8-3.6-1.2s-1.1-0.9-0.3-2.1
	c0.8-1.2,2.7-3.1,4.3-4.3s2.8-1.8,4.5-2.2s3.7-0.6,5.3-1.9c1.6-1.2,2.6-3.5,3.6-5.4c1-2,1.8-3.7,3.8-6.2c1.9-2.5,4.9-5.7,4.4-12.3
	c-0.1,0-0.1,0.1-0.2,0.1c-1.7,1.2-3.5,2.8-5.9,5.3s-5.6,6-8.9,9.4s-6.8,6.8-9.7,9.7s-5.2,5.2-6.5,6.8s-1.6,2.3-1.4,3
	c0.2,0.6,0.9,1.2,3,2.1C13.6,186.5,15.5,187.2,17.6,187.9z"/>
<path class="st3" d="M186.1,129.4c-2.2-0.1-4.4-0.3-6.7-0.4c-7.8,6.4-11.8,9.6-13.6,11.1c-1.8,1.6-1.3,1.6,1.9-0.3
	C170.9,138.1,176.7,134.4,186.1,129.4z"/>
<path class="st3" d="M210.4,130.3c4.3,0,7.6-0.2,10.3-0.5c5.1-0.6,8-1.6,10.5-2.7s4.5-2.2,6.9-2.8c2.4-0.7,5.2-0.9,7.1-1.2
	c0.4-0.1,0.8-0.1,1.1-0.2c-2.8,6-4.5,10.7-5.7,14.4c-9.4,17.8-10.9,21.3-11.6,23.1c-0.8,1.8-0.9,1.8-1.2,0.9c-0.3-0.8-0.8-2.5-1.4-4
	c-0.6-1.5-1.5-2.9-2.4-4.1c-1-1.3-2.1-2.5-2.7-3.1c-0.6-0.7-0.8-0.8-0.4-0.9c0.4-0.1,1.2-0.1,1.7-0.5c0.5-0.3,0.6-1,0.2-2
	c-0.4-1-1.3-2.5-3.1-5C217.8,139.6,215.3,136.4,210.4,130.3z"/>
<path class="st7" d="M98.3,127c5.7,6.3,9.4,10.1,10.9,11.3c0.3-1.5,0.6-3.1,0.8-4.4c0.5-3.2,0.6-5.2,0.3-7.1
	C106.4,126.9,102.4,127,98.3,127z"/>
<path class="st7" d="M239.5,188.9c0.3-3.4,0.8-6.2,1.3-8.4c0.5,0,1-0.2,1.6-0.6c0.8-0.7,1.6-2,2.2-3.4c0.6-1.4,0.8-2.9,1.1-4
	s0.5-1.7,0.9-2.1c0.4-0.4,0.9-0.5,1.6-0.5c0.7,0.1,1.5,0.4,2.2,0.9c0.7,0.6,1.2,1.4,1.5,2.5c0.2,1.1,0.2,2.4,0.1,3.5
	c-0.1,1-0.3,1.8-1.3,2.8s-2.7,2.3-5.1,4.2C243.6,185.5,241.4,187.3,239.5,188.9z"/>
<path class="st7" d="M254.5,175.4c-0.3-0.4-0.2-1.9-0.3-3.1c-0.2-1.3-0.6-2.4-1.6-3.2s-2.6-1.3-3.8-1.6c-1.3-0.3-2.2-0.3-2.9-0.9
	c-0.7-0.5-1-1.6-1.2-2.4c-0.2-0.9-0.2-1.6,0.1-2.4s0.9-1.5,1.7-1.9s1.9-0.6,3.3-0.5c1.3,0.1,2.9,0.6,4.2,1.3s2.4,1.7,3.2,2.3
	s1.1,0.6,1.4,0.9c0.3,0.3,0.6,0.9,0.7,2c0,1.1-0.2,2.7-0.7,4.2c-0.5,1.6-1.4,3.1-2.1,4.1C255.4,175.3,254.7,175.8,254.5,175.4z"/>
<path class="st7" d="M257.7,159.7c-0.8-0.3-2.1-1.2-3.4-2c-1.2-0.8-2.4-1.4-3.5-1.7s-2.3-0.3-3.2,0s-1.7,0.9-2,1s-0.3-0.4-0.2-1.5
	c0.2-1.1,0.4-2.8,1.1-4.3c0.6-1.4,1.6-2.5,2.7-3.3c1.1-0.7,2.4-1.1,3.4-1s1.8,0.7,2.5,1.6c0.8,0.9,1.6,2.1,2.1,3.4
	c0.5,1.3,0.8,2.8,1,4s0.3,2.3,0.3,3C258.6,159.7,258.4,160,257.7,159.7z"/>
<path class="st25" d="M111.6,146.3c6.2,6,7,6,6.7,5c-0.2-1-1.4-3.2-4.7-8.3C113,144.1,112.3,145.3,111.6,146.3z"/>
<path class="st25" d="M88.2,127.3c4.2,3.5,7.5,6.7,9.9,9.6c-0.7-0.4-1.3-0.9-1.9-1.3c-4.3-2.9-8.3-5.6-11.9-8.2
	C85.6,127.4,86.9,127.3,88.2,127.3z"/>
<path class="st25" d="M109.2,138.3c-1.6-1.3-5.2-5-10.9-11.3c-1.3,0-2.6,0.1-3.9,0.1c9.4,9.2,11.2,10.7,12.1,11.7s0.9,1.5,0.3,2
	c-0.6,0.4-1.8,0.8-3.7-0.5c1.6,1.1,3.3,2.2,5,3.4C108.5,142,108.9,140.1,109.2,138.3z"/>
<path class="st25" d="M52.7,141.6c0.2,0.1,0.3,0.3,0.5,0.5c0.5,0.5,0.8,1.2,1.5,2.9s1.7,4.6,2.8,8.2c0.2,0.6,0.4,1.2,0.5,1.8
	c0.9,3.2,1.9,6.8,2.7,10.2c0.3,1.2,0.6,2.4,0.9,3.5c0.2,0.9,0.5,1.8,0.7,2.7c2.6-8.9,3.2-13.9,3.7-17.5s1-5.9,1.2-8
	c0.2-2,0.2-3.8,0.4-5.5c0.2-1.7,0.5-3.4,0.9-4.6c0.4-1.2,0.9-1.9,1.5-2.3c0.6-0.4,1.4-0.6,1.7-1.6c0.2-0.7,0.3-1.9,0.3-3.7
	c-1,0.1-1.9,0.1-2.9,0.2c-0.2,1.6-0.4,2.3-0.8,2.9c-0.6,0.9-1.7,1.7-2.4,2.9c-0.7,1.2-1.1,2.9-1.2,4.9c-0.1,2.1-0.1,4.5-0.2,7.2
	s-0.4,5.5-0.8,8.2c-0.4,2.7-0.8,5.1-1.1,6.3c-0.4,1.2-0.6,1-1-0.7s-0.9-5.1-1.6-7.7c-0.7-2.6-1.6-4.4-2.5-6s-1.8-3-2.5-4.9
	c-0.6-1.6-1.1-3.6-2.2-11.4c-0.8,0.1-1.6,0.2-2.4,0.3C51.3,134.6,52,138.3,52.7,141.6z"/>
<path class="st25" d="M32.7,133.8c-3.2,3.3-9,9.9-12.9,14.6c-4,4.7-6.2,7.5-7.5,9.9s-1.8,4.3-1.8,5.1c0.1,0.8,0.7,0.6,2.3-0.5
	s4.3-2.9,7.6-5c3.4-2.1,7.4-4.5,10-5.8c2.5-1.3,3.6-1.5,4.2-1.3c0.7,0.2,1,0.7-0.6,2.5c-1.6,1.7-5.1,4.7-9.2,8.4s-8.7,8.1-12,11.7
	c-3.4,3.6-5.5,6.4-6.8,8.3c-1.3,1.8-1.9,2.7-1.7,3.4c0.2,0.7,1.2,1.2,4.1,2.6s7.7,3.6,11.3,4.8s6.1,1.6,9.8,1.7
	c3.7,0.1,8.6,0,11.9,0c3.3,0.1,4.9,0.4,5.6,1c0.7,0.6,0.6,1.4-0.2,2c-0.7,0.6-2,0.9-4.9,1.9c-2.9,0.9-7.5,2.4-10,3.4
	s-2.8,1.5-2.4,2.1s1.5,1.4,4,1.8c2.5,0.4,6.4,0.4,12.2,0.4s13.5,0,18.9,1.4c0-0.2,0-0.4,0-0.6c0-0.9-0.1-1.6-0.4-2.3
	c-7.3-0.7-13.2-0.7-16.8-0.8s-4.7-0.2-5.6-0.4c-0.8-0.2-1.3-0.3-1.2-0.7s0.6-1,3.6-2.2s8.4-3,14-5.4c-0.3-0.4-0.5-0.9-0.8-1.3
	c-0.3-0.5-0.5-1-0.8-1.6c-6.1,0.6-10.4-0.5-14.1-1c-3.7-0.5-6.8-0.5-10.2-0.8c-3.4-0.4-7.1-1.1-10.7-2.1s-7-2.2-9.1-3.1
	c-2.1-0.9-2.8-1.4-3-2.1c-0.2-0.6,0.1-1.4,1.4-3s3.6-3.9,6.5-6.8c2.9-2.9,6.4-6.3,9.7-9.7s6.5-6.9,8.9-9.4s4.1-4,5.9-5.3
	c1.7-1.2,3.5-2.1,5.5-2.6c0.1-1.3,0.2-2.4,0.4-3.2c0-0.1,0-0.1,0-0.2c-8.5,0.6-13.2,3.2-17.4,5.4c-4.1,2.3-7.7,4.3-9.5,5.2
	c-1.8,0.9-1.8,0.5-1.4-0.2s1.1-1.9,3.2-4.5s5.6-6.7,15.4-17C36.1,133,34.3,133.4,32.7,133.8z"/>
<path class="st25" d="M210.4,130.3c-0.8,0-1.6,0-2.5,0c10,12.2,11.9,15,12.7,16.4c0.9,1.6,0.4,1.6-0.7,1.1c-1.1-0.5-2.8-1.5-3.9-1.8
	c-1.1-0.4-1.7-0.2-1.5,0.3c0.1,0.4,0.9,1.1,2.4,2.4c1.5,1.3,3.8,3.3,5.8,6.1s3.9,6.5,5.3,14c3.2-9.4,6.7-16.4,8.9-20.6
	c0.7-1.2,1.2-2.2,1.7-3c0.4-2.2,1-4.7,1.9-7.8c-9.4,17.8-10.9,21.3-11.6,23.1c-0.8,1.8-0.9,1.8-1.2,0.9c-0.3-0.8-0.8-2.5-1.4-4
	c-0.6-1.5-1.5-2.9-2.4-4.1c-1-1.3-2.1-2.5-2.7-3.1c-0.6-0.7-0.8-0.8-0.4-0.9c0.4-0.1,1.2-0.1,1.7-0.5c0.5-0.3,0.6-1,0.2-2
	c-0.4-1-1.3-2.5-3.1-5C217.8,139.6,215.3,136.4,210.4,130.3z"/>
<path class="st25" d="M110.4,126.9c0.3,1.9,0.2,3.9-0.3,7.1s-1.5,7.7-2.2,11s-1,5.3-1,6.3c0.1,1.1,0.5,1.1,2.3-1.4s4.9-7.6,6.8-10.5
	s2.6-3.6,3.1-3.6c0.5-0.1,0.8,0.4,1,2.7s0.3,6.4,0.7,11.5c0.4,5.1,0.9,11.1,1.5,15.2c0.6,4,1.1,6,1.7,7.1s1.2,1.3,4-1.6
	c2.8-2.8,7.7-8.7,13.2-15.4s11.4-14.2,23.1-27.2c-1.3-0.1-2.6-0.1-3.8-0.2c-8.9,10.6-13.9,16.9-18.4,22.4s-8.5,10.3-11,13.4
	c-2.6,3.1-3.8,4.6-4.6,5.3c-0.8,0.7-1.1,0.7-1.4-0.6s-0.7-3.8-1-7.9c-0.3-4.1-0.5-9.8-0.9-14.7s-1-9-1.5-11.3s-0.8-3-1.6-3.1
	c-0.7-0.1-1.8,0.2-2.9,1.6c-1.1,1.4-2.2,3.8-3.4,6c-1.1,2.2-2.3,4.1-3,4.9c-0.7,0.7-0.8,0.2-0.6-1.4c0.2-1.6,0.6-4.3,1.4-7.4
	c0.8-3.1,1.9-6.5,1.9-8.4C112.4,126.9,111.4,126.9,110.4,126.9z"/>
<path class="st25" d="M175.8,128.8c-7.7,7.5-15.5,13.3-20.2,16.9c-4.6,3.6-6.1,5.1-6.7,6c-0.6,0.9-0.3,1.4,6.7-2.6
	c6.9-4,20.5-12.4,33.8-19.6c-1.1-0.1-2.3-0.1-3.4-0.2c-9.4,5-15.2,8.6-18.4,10.5c-3.2,1.8-3.7,1.8-1.9,0.3
	c1.8-1.6,5.8-4.7,13.6-11.1C178.2,129,177,128.9,175.8,128.8z"/>
<path class="st25" d="M267.1,131.1c7.6,3.5,13.1,6.3,17,8.3c6.7,3.5,8.5,4.8,9.2,5.6s0.2,1.1-2.3,1.2c-2.5,0-7.1-0.2-10.3-0.3
	c-3.1-0.1-4.9-0.1-5.7,0.1c-0.9,0.2-0.9,0.6,0.8,1.7c1.6,1.1,4.9,2.9,8.2,5c3.3,2.1,6.6,4.3,10.8,7.4c4.2,3.1,9.2,7,12.9,9.8
	s6,4.7,7.2,5.9c1.2,1.3,1.2,1.9,0,2.6c-1.1,0.6-3.4,1.3-6.2,1.9c-2.8,0.6-6.1,1.2-10,1.7s-8.3,0.8-11.5,1.4
	c-3.2,0.5-5.1,1.2-7.7,1.8c-2.5,0.6-5.7,1.1-15.7,0.3c-1.3,1.8-2.6,3.6-3.8,5.1c-0.1,0.1-0.2,0.2-0.3,0.4c8.2-0.6,14.5,0.1,18.5,0.7
	c4,0.6,5.8,1,6.5,1.4s0.4,0.9-4.6,2.1c-5,1.2-14.8,3.2-32.1,6.5c-1,0.7-1.9,1.3-2.9,1.9c-2.5,1.5-4.8,2.4-6.2,3.2
	c-1.2,0.7-1.6,1.3-1.9,2c9.7-2.8,17.2-4.5,24.9-6.3c7.8-1.8,16-3.5,22.2-5.3c6.2-1.7,10.5-3.4,13-4.5c2.5-1.2,3.2-1.8,3.3-2.4
	c0.1-0.5-0.6-0.9-3.7-1.1c-3.1-0.2-8.7-0.2-11.7-0.3s-3.2-0.3-2.4-0.7c0.8-0.4,2.7-0.9,6.4-1.4c3.7-0.5,9.1-1,13.4-1.7
	c4.4-0.7,7.7-1.5,10.8-2.4c3.1-0.9,5.9-1.9,7.4-2.8c1.5-0.9,1.6-1.6,1-2.5s-1.9-2-5.4-4.9s-9.2-7.6-14.7-11.7
	c-5.5-4.1-10.7-7.7-13.4-9.8c-2.7-2-2.7-2.5-0.8-2.7c1.9-0.1,5.8,0.1,9.3,0.3c3.5,0.1,6.6,0.1,8.1-0.2c1.6-0.3,1.6-0.9,0.5-1.8
	c-1.1-0.9-3.2-2-8.9-4.9c-5-2.5-12.6-6.4-29.1-14C267.2,128.9,267.2,130,267.1,131.1z"/>
</svg>
