<?xml version="1.0" encoding="utf-8"?>
<!-- Generator: Adobe Illustrator 23.0.5, SVG Export Plug-In . SVG Version: 6.00 Build 0)  -->
<svg version="1.1" id="Capa_1" xmlns="http://www.w3.org/2000/svg" xmlns:xlink="http://www.w3.org/1999/xlink" x="0px" y="0px"
	 viewBox="0 0 517 518" style="enable-background:new 0 0 517 518;" xml:space="preserve">
<style type="text/css">
	.st0{fill:none;stroke:#FFFFFF;stroke-width:10;stroke-miterlimit:10;}
	.st1{fill:#FFFFFF;}
	.st2{opacity:0.15;fill:#FFFFFF;}
</style>
<g>
	<path class="st0" d="M506.57,258.88c0.62,136.44-108.92,247.19-244.22,249.15C123.57,510.04,12.12,398.93,10.44,263.28
		C8.72,124.21,120.93,12.15,258.23,11.87C394.5,11.59,505.92,122.17,506.57,258.88z"/>
	<g>
		<path class="st1" d="M262.33,384.03c0.91,5.05-1.79,8.51-5.67,10.72c-4.33,2.47-9.02,2.11-13.08-1.09
			c-8.8-6.94-17.51-13.98-26.26-20.98c-19.5-15.6-38.96-31.25-58.53-46.75c-2.99-2.36-4.38-4.79-4.36-8.79
			c0.17-36.22,0.13-72.44,0.05-108.65c-0.01-2.92,0.57-5.05,3.02-7.01c28.53-22.75,56.95-45.64,85.46-68.43
			c4.2-3.36,8.85-4.28,13.75-1.25c0.18,2.1-1.95,1.9-3.13,2.82c1.36,0.79,4.15-0.07,3.63,1.71c-1.3,4.51,1.48,8.24,1.47,12.57
			c-0.24,75.43-0.17,150.86-0.15,226.29c0,2.06-0.2,4.12,0.52,6.18C259.63,383.06,260.29,384.28,262.33,384.03z"/>
		<path class="st1" d="M418.09,262.36c-0.57,53.88-19.24,100.84-57.17,139.94c-8.54,8.8-20.9,6.75-25.57-4.07
			c-2.35-5.44-0.93-11.86,3.91-16.71c14.39-14.44,26.04-30.84,33.94-49.62c23.24-55.25,19.32-108.63-11.97-159.84
			c-6.29-10.29-14.14-19.36-22.51-28.01c-5.13-5.31-5.85-12.88-2.08-18.51c4.2-6.28,10.99-8.53,18.07-6.04
			c2.67,0.94,4.67,2.77,6.55,4.72c28.93,30,47.24,65.37,54.04,106.61C416.99,241.13,417.71,251.49,418.09,262.36z"/>
		<path class="st1" d="M352.86,262.67c-0.43,34.05-12.06,63.5-35.43,88.24c-5.62,5.95-11.92,7.57-18.12,4.88
			c-5.92-2.57-9.34-7.98-9.14-14.45c0.14-4.43,2.27-7.87,5.26-10.95c18.66-19.23,27.74-42.4,27.33-69.05
			c-0.38-24.84-9.31-46.47-26.46-64.56c-6.14-6.48-7.7-12.07-4.85-18.59c4.45-10.18,17.23-11.94,25.44-3.39
			C340.43,199.36,352.19,228.77,352.86,262.67z"/>
		<path class="st1" d="M137.09,263.15c0,17.29-0.08,34.58,0.08,51.87c0.03,3.4-0.6,4.79-4.41,4.67c-9.44-0.29-18.89-0.06-28.33-0.11
			c-7.88-0.04-13.14-4.94-13.17-12.73c-0.1-29.13-0.11-58.27,0.01-87.4c0.03-7.71,4.91-12.58,12.66-12.76
			c9.92-0.23,19.85,0,29.77-0.17c3.41-0.06,3.42,1.83,3.42,4.3C137.07,228.25,137.09,245.7,137.09,263.15z"/>
		<path class="st1" d="M262.33,384.03c-2.03,0.26-2.69-0.96-3.29-2.66c-0.72-2.06-0.52-4.12-0.52-6.18
			c-0.02-75.43-0.08-150.86,0.15-226.29c0.01-4.33-2.77-8.06-1.47-12.57c0.51-1.78-2.27-0.93-3.63-1.71
			c1.17-0.93,3.31-0.72,3.13-2.82c4.55,2.23,6.21,5.98,5.69,10.87c-0.66,0.31-0.7,0.63-0.02,0.97c0.08,1.27,0.22,2.55,0.22,3.82
			c0.01,76.3,0.01,152.6,0,228.9c0,1.27-0.14,2.55-0.22,3.82c-0.13,0.09-0.38,0.21-0.37,0.26c0.07,0.25,0.21,0.47,0.33,0.7
			C262.33,382.1,262.33,383.06,262.33,384.03z"/>
		<path class="st1" d="M262.37,143.64c-0.68-0.34-0.64-0.66,0.02-0.97C262.38,142.99,262.38,143.31,262.37,143.64z"/>
		<path class="st1" d="M262.33,381.13c-0.12-0.23-0.25-0.46-0.33-0.7c-0.01-0.04,0.24-0.17,0.37-0.26
			C262.36,380.5,262.34,380.81,262.33,381.13z"/>
	</g>
</g>
<g>
	<path class="st0" d="M-1340.51,258.87c0.64,141.89-113.27,257.07-253.98,259.11c-144.33,2.09-260.24-113.45-261.98-254.54
		c-1.79-144.63,114.91-261.17,257.69-261.46C-1457.06,1.7-1341.19,116.7-1340.51,258.87z"/>
	<path class="st2" d="M-1340.51,256.87c0.64,141.89-113.27,257.07-253.98,259.11c-144.33,2.09-260.24-113.45-261.98-254.54
		c-1.79-144.63,114.91-261.17,257.69-261.46C-1457.06-0.3-1341.19,114.7-1340.51,256.87z"/>
	<g>
		<path class="st1" d="M-1631.66,323.87c0-20.86,2.53-37.48,7.59-49.85c5.06-12.37,14.33-24.55,27.8-36.55
			c13.47-12,22.44-21.76,26.91-29.29c4.47-7.53,6.7-15.47,6.7-23.83c0-25.2-11.61-37.8-34.84-37.8c-11.02,0-19.84,3.4-26.46,10.18
			c-6.63,6.79-10.09,16.15-10.38,28.09h-64.76c0.3-28.46,9.49-50.74,27.58-66.84s42.77-24.14,74.03-24.14
			c31.56,0,56.05,7.64,73.47,22.91c17.42,15.28,26.13,36.85,26.13,64.71c0,12.67-2.83,24.63-8.49,35.88
			c-5.66,11.25-15.56,23.73-29.7,37.44l-18.09,17.21c-11.32,10.88-17.79,23.62-19.43,38.22l-0.89,13.64H-1631.66z M-1638.14,392.32
			c0-9.94,3.38-18.14,10.16-24.6c6.77-6.46,15.44-9.68,26.02-9.68c10.57,0,19.24,3.23,26.02,9.68c6.77,6.46,10.16,14.66,10.16,24.6
			c0,9.79-3.32,17.88-9.94,24.26c-6.63,6.38-15.37,9.57-26.24,9.57c-10.87,0-19.62-3.19-26.24-9.57
			C-1634.83,410.2-1638.14,402.11-1638.14,392.32z"/>
	</g>
</g>
</svg>
