<?xml version="1.0" encoding="utf-8"?>
<!-- Generator: Adobe Illustrator 23.0.5, SVG Export Plug-In . SVG Version: 6.00 Build 0)  -->
<svg version="1.1" id="Capa_1" xmlns="http://www.w3.org/2000/svg" xmlns:xlink="http://www.w3.org/1999/xlink" x="0px" y="0px"
	 viewBox="0 0 517 518" style="enable-background:new 0 0 517 518;" xml:space="preserve">
<style type="text/css">
	.st0{fill:none;stroke:#FFFFFF;stroke-width:10;stroke-miterlimit:10;}
	.st1{opacity:0.15;fill:#FFFFFF;enable-background:new    ;}
	.st2{fill:#FFFFFF;}
	.st3{fill:none;stroke:#000000;stroke-width:10;stroke-miterlimit:10;}
	.st4{fill:none;stroke:#000000;stroke-width:40;stroke-linecap:round;stroke-miterlimit:10;}
</style>
<g>
	<path class="st0" d="M-1340.5,258.9c0.6,141.9-113.3,257.1-254,259.1c-144.3,2.1-260.2-113.5-262-254.5
		C-1858.3,118.8-1741.6,2.3-1598.8,2C-1457.1,1.7-1341.2,116.7-1340.5,258.9z"/>
	<path class="st1" d="M-1340.5,256.9c0.6,141.9-113.3,257.1-254,259.1c-144.3,2.1-260.2-113.5-262-254.5
		C-1858.3,116.8-1741.6,0.3-1598.8,0C-1457.1-0.3-1341.2,114.7-1340.5,256.9z"/>
	<g>
		<path class="st2" d="M-1631.7,323.9c0-20.9,2.5-37.5,7.6-49.9s14.3-24.6,27.8-36.6s22.4-21.8,26.9-29.3s6.7-15.5,6.7-23.8
			c0-25.2-11.6-37.8-34.8-37.8c-11,0-19.8,3.4-26.5,10.2c-6.6,6.8-10.1,16.1-10.4,28.1h-64.8c0.3-28.5,9.5-50.7,27.6-66.8
			s42.8-24.1,74-24.1c31.6,0,56.1,7.6,73.5,22.9s26.1,36.8,26.1,64.7c0,12.7-2.8,24.6-8.5,35.9s-15.6,23.7-29.7,37.4l-18.1,17.2
			c-11.3,10.9-17.8,23.6-19.4,38.2l-0.9,13.6L-1631.7,323.9L-1631.7,323.9z M-1638.1,392.3c0-9.9,3.4-18.1,10.2-24.6
			c6.8-6.5,15.4-9.7,26-9.7s19.2,3.2,26,9.7s10.2,14.7,10.2,24.6c0,9.8-3.3,17.9-9.9,24.3s-15.4,9.6-26.2,9.6s-19.6-3.2-26.2-9.6
			C-1634.8,410.2-1638.1,402.1-1638.1,392.3z"/>
	</g>
</g>
<g>
	<path class="st3" d="M506.6,257.9c0.6,136.4-108.9,247.2-244.2,249.1c-138.8,2.1-250.3-109-252-244.7
		C8.7,123.2,120.9,11.2,258.2,10.9C394.5,10.6,505.9,121.2,506.6,257.9z"/>
	<g>
		<line class="st4" x1="129.6" y1="128.2" x2="385.1" y2="383.7"/>
		<line class="st4" x1="131.9" y1="389.8" x2="387.4" y2="134.3"/>
	</g>
</g>
</svg>
