<?xml version="1.0" encoding="utf-8"?>
<!-- Generator: Adobe Illustrator 23.0.5, SVG Export Plug-In . SVG Version: 6.00 Build 0)  -->
<svg version="1.1" id="Predeterminado" xmlns="http://www.w3.org/2000/svg" xmlns:xlink="http://www.w3.org/1999/xlink" x="0px"
	 y="0px" viewBox="0 0 1195.22 750" style="enable-background:new 0 0 1195.22 750;" xml:space="preserve">
<style type="text/css">
	.st0{fill:#FFFFFF;}
	.st1{fill:#242C5F;}
	.st2{fill:#C91517;}
</style>
<g>
	<rect x="0" y="0" class="st0" width="1195.22" height="750"/>
	<polygon class="st1" points="1125.53,750 713.3,524.3 713.3,750 	"/>
	<polygon class="st2" points="1195.22,698.15 1195.22,644.27 929.31,497.76 825.61,497.76 	"/>
	<polygon class="st1" points="983.2,497.76 1195.22,615.8 1195.22,497.76 	"/>
	<polygon class="st1" points="69.69,750 481.92,524.3 481.92,750 	"/>
	<polygon class="st2" points="0,698.15 0,644.27 265.91,497.76 369.61,497.76 	"/>
	<polygon class="st1" points="212.02,497.76 0,615.8 0,497.76 	"/>
	<polygon class="st2" points="665.47,449.93 665.47,750 529.75,750 529.75,449.93 0,449.93 0,300.06 529.75,300.06 529.75,0 
		665.47,0 665.47,300.06 1195.22,300.06 1195.22,449.93 	"/>
	<polygon class="st1" points="1125.53,0 713.3,225.7 713.3,0 	"/>
	<polygon class="st2" points="1195.22,51.85 1195.22,105.73 929.31,252.24 825.61,252.24 	"/>
	<polygon class="st1" points="983.2,252.24 1195.22,134.2 1195.22,252.24 	"/>
	<polygon class="st1" points="69.69,0 481.92,225.7 481.92,0 	"/>
	<polygon class="st2" points="0,51.85 0,105.73 265.91,252.24 369.61,252.24 	"/>
	<polygon class="st1" points="212.02,252.24 0,134.2 0,252.24 	"/>
</g>
</svg>
