<?xml version="1.0" encoding="utf-8"?>
<!-- Generator: Adobe Illustrator 23.0.5, SVG Export Plug-In . SVG Version: 6.00 Build 0)  -->
<svg version="1.1" id="Predeterminado" xmlns="http://www.w3.org/2000/svg" xmlns:xlink="http://www.w3.org/1999/xlink" x="0px"
	 y="0px" viewBox="0 0 841.9 841.9" style="enable-background:new 0 0 841.9 841.9;" xml:space="preserve">
<style type="text/css">
	.st0{fill:#676370;}
	.st1{fill:#D1D1D1;}
	.st2{fill:#FFFFFF;}
	.st3{fill:#FF0B2E;}
	.st4{fill:#322F38;}
	.st5{fill:#AD0021;}
</style>
<g>
	<g>
		<path class="st0" d="M45.5,466.5c2.1,1.5,4.1,3,6.2,4.5c3.5,2.5,7,5,10.6,7.4c3.4,2.3,6.8,4.6,10.3,6.8c3.4,2.2,6.9,4.3,10.3,6.4
			c3.7,2.2,7.5,4.3,11.4,6.3c4.5,2.3,9,4.5,13.6,6.7c5.5,2.5,11,5,16.5,7.3c6.1,2.6,12.3,5.1,18.5,7.5c8.3,3.2,16.7,6.2,25.1,9.1
			c5.6,1.9,11.2,3.7,16.8,5.3c2.3,0.7,4.7,1.3,7.1,2c1.9,0.5,3.9,1,5.9,1.4c1.6,0.3,3.2,0.7,4.8,1c0.5-1.6,0.9-3.1,1.4-4.7
			c1.1-3.8,2.3-7.5,3.5-11.2c0.9-2.7,1.9-5.4,3-8.1c0.8-2,1.6-3.9,2.5-5.8c0.7-1.5,1.5-3,2.4-4.4c0.4-0.7,0.8-1.4,1.2-2
			c0.8-1.3,1.5-2.5,2.3-3.7c1.7-2.6,3.5-5.2,5.4-7.8c1.9-2.5,3.9-4.9,6.1-7.2c2.2-2.3,4.5-4.6,7-6.7c2.4-2.1,5-4.2,7.6-6.1
			c2.5-1.9,5.1-3.7,7.8-5.4c2.6-1.7,5.3-3.2,8-4.6c2.8-1.5,5.7-2.8,8.7-3.9c3.2-1.2,6.4-2.3,9.7-3.2c3.7-1,7.4-1.8,11.2-2.5
			c4.2-0.7,8.4-1.3,12.7-1.7c4.4-0.4,8.7-0.7,13.1-0.8c4.2-0.1,8.5-0.1,12.7,0.2c4.2,0.2,8.4,0.7,12.6,1.4c4.3,0.7,8.7,1.6,12.9,2.8
			c4.5,1.2,8.8,2.6,13.2,4.2c4.4,1.6,8.7,3.4,13,5.4c4.2,2,8.3,4.1,12.3,6.5c3.9,2.3,7.6,4.8,11.2,7.6c3.5,2.7,6.9,5.6,10.1,8.7
			c3.2,3.1,6.3,6.3,9.2,9.6c3,3.3,5.8,6.8,8.5,10.3c2.7,3.5,5.3,7.1,7.8,10.8c1.1,1.7,2.2,3.4,3.3,5.1c0.6,0.9,1.1,1.9,1.7,2.8
			c1.1,1.9,2.2,3.9,3.2,5.9c1.1,2.2,2.2,4.5,3.1,6.8c1.1,2.8,2.2,5.6,3.1,8.5c1.2,3.5,2.2,7.1,3.2,10.7c0.4,1.4,0.7,2.7,1.1,4.1
			c1.4-0.1,2.8-0.1,4.3-0.2c14.6-0.6,29.2-1.2,43.9-2.1c11.5-0.7,23-1.4,34.5-2.3c9-0.7,17.9-1.5,26.9-2.5c7-0.8,14.1-1.7,21.1-2.7
			c5.7-0.8,11.4-1.8,17.1-2.9c3.3-0.6,6.7-1.3,10-1.9c4.6-0.9,9.1-1.9,13.7-3c8-1.9,16-4,23.8-6.3c7-2.1,13.9-4.4,20.8-6.9
			c6.6-2.4,13.2-5,19.7-7.8c6.9-3,13.7-6.1,20.4-9.4c3.7-1.8,7.3-3.7,11-5.6c2.6-1.3,5.2-2.7,7.7-4.1c4.3-2.3,8.6-4.7,12.8-7.2
			c5.1-3,10.1-6.1,15-9.4c6.2-4,12.2-8.3,18.2-12.6c6.8-4.9,13.5-9.9,20.1-15.1c0,0.3,0,0.5,0,0.8c0,1.1-0.1,2.2-0.2,3.2
			c-0.3,2.2-0.9,4.3-1.6,6.4c-0.8,2.2-1.8,4.4-2.9,6.5c-0.9,1.8-1.9,3.6-3,5.3c-1.4,2.3-2.9,4.5-4.5,6.7c-1.7,2.3-3.5,4.6-5.4,6.8
			c-2.1,2.5-4.3,4.8-6.6,7.1c-2.5,2.5-5.1,5-7.8,7.4c-2.8,2.5-5.7,5-8.6,7.4c-3,2.5-6.1,4.8-9.2,7.2c-3.1,2.3-6.3,4.5-9.5,6.7
			c-6.5,4.3-13.2,8.3-20.1,12c-7.1,3.7-14.5,7.1-22,10.1c-7.9,3.2-15.9,6-24.1,8.6c-9.1,2.9-18.2,5.4-27.4,7.8
			c-5.3,1.4-10.5,2.7-15.8,4c-5.9,1.4-11.8,2.8-17.8,4.1c-12.9,2.8-25.8,5.2-38.8,7.4c-4.3,0.7-8.5,1.4-12.8,2
			c-4.8,0.7-9.5,1.3-14.3,1.9c-11.6,1.4-23.2,2.6-34.8,3.5c-7.1,0.6-14.3,1.1-21.4,1.5c-8.2,0.5-16.5,0.9-24.7,1.3
			c-0.9,0-1.7,0.1-2.6,0.1c-0.4,0.8-0.7,1.6-1.1,2.3c-2.5,5.3-5.1,10.6-7.8,15.7c-2.2,4.2-4.6,8.4-7.1,12.5
			c-2.2,3.5-4.4,6.9-6.9,10.2c-2.2,3.1-4.6,6-7,8.9c-4.5,5.3-9.4,10.2-14.7,14.6c-2.5,2-5,3.9-7.6,5.7c-2.6,1.7-5.2,3.3-7.9,4.7
			c-2.7,1.4-5.5,2.7-8.3,4c-2.9,1.2-5.8,2.3-8.7,3.3c-3,1-6,2-9.1,2.8c-3,0.8-6.1,1.5-9.2,2.1c-3,0.6-6,1-9.1,1.4
			c-3,0.3-5.9,0.5-8.9,0.5c-3,0.1-6.1,0-9.1-0.2c-3.2-0.2-6.4-0.5-9.5-0.9c-7-0.9-13.9-2.2-20.6-4.1c-3.6-1-7.1-2.2-10.6-3.5
			c-1.8-0.7-3.5-1.4-5.3-2.2c-1.8-0.8-3.5-1.7-5.2-2.6c-3.5-1.8-6.9-3.8-10.2-5.9c-3.2-2.1-6.4-4.3-9.5-6.6c-3.5-2.6-6.8-5.4-10-8.3
			c-2.6-2.4-5.2-5-7.6-7.6c-2.7-2.9-5.2-6-7.7-9.1c-1.7-2.2-3.4-4.3-5-6.5c-3.1-4.3-6.1-8.6-8.9-13.1c-3.3-5.4-6.3-11-8.9-16.7
			c-3.2-6.9-5.9-14.1-8.2-21.4c-0.3-0.9-0.6-1.8-0.8-2.7c-0.9-0.1-1.9-0.2-2.8-0.3c-6.5-0.6-12.9-1.5-19.3-3c-2.7-0.6-5.4-1.3-8-2.1
			c-2.6-0.7-5.1-1.5-7.6-2.4c-2.6-0.8-5.2-1.7-7.7-2.6c-2.7-0.9-5.3-1.8-8-2.8c-5.5-1.9-10.9-3.9-16.3-6c-5.5-2.1-10.9-4.4-16.2-6.7
			c-5.3-2.3-10.4-4.8-15.6-7.4c-4.8-2.5-9.6-5.1-14.2-7.9c-4.2-2.6-8.3-5.3-12.3-8.2c-3.5-2.6-6.9-5.3-10.2-8.1
			c-2.8-2.5-5.6-5.1-8.1-7.8c-2.4-2.6-4.7-5.3-6.8-8.1c-1-1.4-2-2.7-3-4.1c-0.5-0.8-1.1-1.5-1.6-2.3c-1.1-1.6-2.1-3.3-3-5
			c-1-1.9-1.9-4-2.7-6c-0.9-2.5-1.6-5-2.2-7.5C46.2,470.2,45.8,468.3,45.5,466.5z"/>
		<g>
			<path d="M406.8,497.6c-19.5-20.1-46.2-32.2-74.3-32.9c-27.6-1.2-54.5,8.6-74.8,27.3c-20.3,18.7-32.2,44.8-33.3,72.3
				c-1.1,27.6,8.7,54.5,27.7,74.6c19,20.2,45.2,31.6,72.8,32c27.8,1.5,55.3-7.9,76.4-26.2c21.1-18.2,34.4-44.1,36.4-72
				C437.6,544.8,426.3,517.7,406.8,497.6z M412.9,626.3c-4.2,5.5-9,10.6-14.2,15.1c-5.3,4.6-11,8.6-17.1,12.1
				c-6,3.4-12.3,6.1-18.8,8.3c-6.2,2-12.7,3.5-19.2,4.3c-6.1,0.8-12.3,1-18.5,0.7c0,0-0.1,0-0.1,0c0,0-0.1,0-0.1,0
				c-6.1-0.1-12.1-0.7-18.1-1.9c-6.3-1.3-12.5-3.2-18.4-5.6c-6.2-2.6-12-5.8-17.5-9.6c-5.6-3.9-10.8-8.3-15.5-13.2
				c-4.7-5-8.9-10.4-12.4-16.2c-3.5-5.7-6.4-11.8-8.6-18.1c-2.2-6.1-3.7-12.4-4.7-18.8c0-0.3-0.1-0.5-0.1-0.8
				c-1.4-30.6,11.8-59.9,35.6-79.2c23.7-19.3,55.1-26.3,84.8-19.2c29.7,7.1,54.5,27.5,67,55.5C429.4,567.5,428,599.7,412.9,626.3z
				 M427.3,600.3c1.1-5.2,1.8-10.5,2.1-15.7c0.4-6.6,0.1-13.1-0.8-19.6c-1-6.8-2.6-13.5-4.9-19.9c-2.4-6.6-5.4-12.9-9-18.9
				c-3.7-6-7.9-11.6-12.7-16.7c-4.7-5-9.9-9.5-15.5-13.5c-5.4-3.8-11.2-7.1-17.2-9.8c-5.7-2.6-11.6-4.6-17.7-6.1
				c-6.1-1.5-12.2-2.4-18.5-2.8c-6.6-0.4-13.2-0.1-19.8,0.7c-6.8,0.9-13.5,2.5-20,4.8c-6.6,2.3-13,5.3-19,8.9
				c-6,3.6-11.6,7.8-16.8,12.6c-5,4.6-9.6,9.8-13.5,15.4c-3.8,5.3-7.1,11-9.8,17c-0.5,1.2-1,2.3-1.5,3.5
				c12.9-43.9,54-73.2,99.7-71.2c6.2,0.2,12.3,0.9,18.3,2.2c6.4,1.4,12.7,3.3,18.8,5.9c6.3,2.7,12.4,6,18.1,9.9
				c5.8,4,11.2,8.5,16.2,13.6c4.9,5.1,9.3,10.6,13.1,16.5c3.7,5.8,6.9,12,9.4,18.4c2.4,6.1,4.2,12.5,5.4,19c1.1,6,1.7,12.2,1.7,18.3
				c-0.4,6-1.4,12-3,17.9C429.5,593.9,428.5,597.1,427.3,600.3z"/>
			<path class="st1" d="M412.9,626.3c-4.2,5.5-9,10.6-14.2,15.1c-5.3,4.6-11,8.6-17.1,12.1c-6,3.4-12.3,6.1-18.8,8.3
				c-6.2,2-12.7,3.5-19.2,4.3c-6.1,0.8-12.3,1-18.5,0.7c0,0-0.1,0-0.1,0c0,0-0.1,0-0.1,0c-6.1-0.1-12.1-0.7-18.1-1.9
				c-6.3-1.3-12.5-3.2-18.4-5.6c-6.2-2.6-12-5.8-17.5-9.6c-5.6-3.9-10.8-8.3-15.5-13.2c-4.7-5-8.9-10.4-12.4-16.2
				c-3.5-5.7-6.4-11.8-8.6-18.1c-2.2-6.1-3.7-12.4-4.7-18.8c0-0.3-0.1-0.5-0.1-0.8c-1.4-30.6,11.8-59.9,35.6-79.2
				c23.7-19.3,55.1-26.3,84.8-19.2c29.7,7.1,54.5,27.5,67,55.5C429.4,567.5,428,599.7,412.9,626.3z"/>
			<path class="st2" d="M427.3,600.3c1.1-5.2,1.8-10.5,2.1-15.7c0.4-6.6,0.1-13.1-0.8-19.6c-1-6.8-2.6-13.5-4.9-19.9
				c-2.4-6.6-5.4-12.9-9-18.9c-3.7-6-7.9-11.6-12.7-16.7c-4.7-5-9.9-9.5-15.5-13.5c-5.4-3.8-11.2-7.1-17.2-9.8
				c-5.7-2.6-11.6-4.6-17.7-6.1c-6.1-1.5-12.2-2.4-18.5-2.8c-6.6-0.4-13.2-0.1-19.8,0.7c-6.8,0.9-13.5,2.5-20,4.8
				c-6.6,2.3-13,5.3-19,8.9c-6,3.6-11.6,7.8-16.8,12.6c-5,4.6-9.6,9.8-13.5,15.4c-3.8,5.3-7.1,11-9.8,17c-0.5,1.2-1,2.3-1.5,3.5
				c12.9-43.9,54-73.2,99.7-71.2c6.2,0.2,12.3,0.9,18.3,2.2c6.4,1.4,12.7,3.3,18.8,5.9c6.3,2.7,12.4,6,18.1,9.9
				c5.8,4,11.2,8.5,16.2,13.6c4.9,5.1,9.3,10.6,13.1,16.5c3.7,5.8,6.9,12,9.4,18.4c2.4,6.1,4.2,12.5,5.4,19c1.1,6,1.7,12.2,1.7,18.3
				c-0.4,6-1.4,12-3,17.9C429.5,593.9,428.5,597.1,427.3,600.3z"/>
		</g>
		<path class="st3" d="M825.4,429.4c-54,44.6-78.4,58.9-98.8,69.6c-20.4,10.8-36.8,18.1-54.2,24.5c-17.5,6.4-36,11.8-62.4,17
			c-26.3,5.1-60.4,10-147.6,13.4c-5-18.7-9.7-27.8-15.1-36.5c-5.5-8.7-11.7-17.2-18.6-25.1c-6.9-7.9-14.3-15.3-22.9-21.7
			c-8.6-6.4-18.4-11.7-28.6-16c-10.2-4.3-20.8-7.6-31-9.5c-10.2-1.9-19.9-2.5-30.1-2.3c-10.2,0.3-20.9,1.4-30.1,3.3
			c-9.2,1.8-16.8,4.4-23.7,7.6c-6.9,3.2-13.1,7-19.3,11.5c-6.1,4.5-12.2,9.6-17.3,15.3c-5.2,5.7-9.4,11.9-13.3,18.2
			c-3.9,6.4-7.4,13-13.4,33.1c-8.7-1.8-24.7-6.8-41.4-12.8c-16.7-6-34-13.2-47.2-19.3C97.1,493.5,88,488.4,79,482.8
			c-9-5.6-17.8-11.7-27.6-18.8c-9.8-7.1-20.4-15.2-34.8-28.1C13,326.9,53.5,221.1,129,142.4C204.5,63.7,308.6,18.8,417.7,17.9
			C526.7,17,631.5,60.2,708.3,137.7C785.1,215.2,827.3,320.4,825.4,429.4z"/>
		<path class="st1" d="M58.7,602.8c-13.6-30.3-18.7-47.4-22.6-62.7c-3.8-14.8-6.5-28-9.9-53.9c0.5,1.4,1.1,2.8,1.7,4.3
			c0.9,2.2,1.9,4.3,2.9,6.4c0.9,1.8,1.9,3.6,2.9,5.3c0.9,1.6,1.9,3.1,3,4.6c1,1.4,2,2.8,3,4.1c2.1,2.8,4.4,5.5,6.7,8.1
			c2.8,3,5.7,5.8,8.8,8.5c3.8,3.2,7.9,6.2,12,9c5.3,3.6,10.8,6.8,16.4,10c3.3,1.9,6.7,3.7,10.1,5.4c3.6,1.9,7.3,3.8,11,5.6
			c1.7,0.8,3.3,1.6,5,2.4c33.7,63.6,62.5,89.7,93.9,114.6c31.4,24.9,65.6,48.7,96.2,64.2c30.6,15.5,57.7,22.9,89.2,27.8
			c31.5,5,67.4,7.6,109.4,5.3c42.1-2.3,90.3-9.6,201.3-56.5C607,803.8,477.5,843,351,820.8C224.5,798.7,116,717.7,58.7,602.8z"/>
		<path class="st1" d="M40.8,462.9c-0.1-0.1-0.2-0.2-0.3-0.2c-4.3-3.2-8.5-6.6-12.7-10c-0.9-0.7-1.7-1.4-2.6-2.1
			c0,16.5,3.8,29,7.5,37.8c3.7,8.8,7.2,14,11.2,19.2c3.9,5.1,8.3,10.2,14.8,15.7c6.5,5.5,15.1,11.4,27.6,18.4
			c8.3,4.6,18.2,9.7,28.3,14.4c0.3-4,2-7.2,5.1-9.7c-8.3-3.8-16.3-8-23.5-12.2c-10.5-6.3-19.4-12.8-26.4-19.1
			c-7-6.2-12-12.2-17-19.4C47.7,488.5,42.7,480,40.8,462.9z"/>
		<path class="st4" d="M45.6,466.5c0.3,1.9,0.6,3.7,1.1,5.6c0.6,2.6,1.3,5.1,2.2,7.5c0.8,2.1,1.6,4.1,2.7,6c0.9,1.7,1.9,3.4,3,5
			c0.5,0.8,1,1.6,1.6,2.3c1,1.4,2,2.8,3,4.1c2.1,2.8,4.4,5.5,6.8,8.1c2.6,2.8,5.3,5.4,8.1,7.8c3.3,2.9,6.7,5.6,10.2,8.1
			c4,2.9,8.1,5.6,12.3,8.2c4.6,2.8,9.4,5.4,14.2,7.9c4.6,2.4,9.3,4.6,14,6.7C104,522.8,90.2,501.8,89.1,495
			c-2.1-1.1-4.1-2.3-6.2-3.5c-3.5-2-6.9-4.2-10.3-6.4c-3.5-2.2-6.9-4.5-10.3-6.8c-3.6-2.4-7.1-4.9-10.6-7.4
			C49.7,469.5,47.6,468,45.6,466.5z"/>
		<path class="st5" d="M16.5,435.9c14.4,12.8,25,21,34.8,28.1c9.8,7.1,18.6,13.2,27.6,18.8c3.6,2.2,7.2,4.4,11.1,6.6
			c-18.3-38.2-25.5-74.9-31.3-108c-5.9-33.2-10.4-62.8-10.4-116.7C25.4,318.8,14.5,377.2,16.5,435.9z"/>
		<path class="st2" d="M698.9,262.5c-5.9,6.2-13.4,10-21.6,11.8c-10.5,2.2-21.4,1.2-31.6-1.5c-18.2-4.9-35.3-15.6-48.8-28.3
			c-13.5-12.7-25.2-29.1-31.2-47c-3.3-9.9-5.1-20.8-3.5-31.4c1.3-8.3,4.6-16.1,10.4-22.3c5.9-6.2,13.4-10,21.6-11.8
			c10.5-2.2,21.4-1.2,31.6,1.5c18.2,4.9,35.3,15.6,48.8,28.3c13.5,12.7,25.2,29.1,31.2,47c3.3,9.9,5.1,20.8,3.5,31.4
			C708.1,248.5,704.8,256.3,698.9,262.5z"/>
		<path d="M717.7,132.5C639.1,51.6,530.9,6.3,418.1,7.1C305.4,7.9,197.8,54.6,120.3,136.5C42.8,218.5,2.1,328.5,7.6,441.1
			c2,1.5,4.1,3,6.1,4.5c-0.7,17.8,0,29.6,1.4,43.4c1.4,13.8,3.6,29.5,11.4,57.3c28.1,88.5,85.2,165,162.1,217.1
			c76.9,52.1,169,76.9,261.7,70.3c92.6-6.6,180.4-44.2,249.1-106.7c68.7-62.5,114.4-146.3,129.7-237.9c2.5-17.4,1.3-32.7-4.4-46.8
			c3.3-2.3,6.5-4.6,9.8-6.8C838.5,322.8,796.3,213.4,717.7,132.5z M52.8,495.7c5,7.2,10.1,13.1,17,19.4c7,6.2,15.8,12.8,26.4,19.1
			c10.5,6.3,22.7,12.2,35.3,17.4c12.5,5.2,25.3,9.7,37.2,13.7c11.9,4,22.8,7.4,40.3,9.1c8.2,26.2,19.2,42.7,28.4,54.8
			c9.1,12.1,16.4,19.8,25.8,27.3c9.4,7.5,20.9,14.9,32.6,19.8c11.7,4.9,23.7,7.4,34.5,8.8c10.8,1.4,20.4,1.6,30.4,0.4
			c10-1.2,20.4-3.9,30.1-7.5c9.7-3.6,18.5-8.2,27-14.6c8.5-6.4,16.6-14.7,24.2-24.8c7.6-10.1,14.7-22,23.6-41.1
			c56.8-2.5,88-6.8,113.5-11.1c25.4-4.4,45-8.8,61.8-13.1c16.8-4.2,30.7-8.2,43.8-12.8c13.1-4.5,25.3-9.7,36.7-15.6
			c11.4-6,22-12.8,32.1-20.4c10.1-7.6,19.7-16.1,27.1-23.9c7.4-7.9,12.6-15.2,16.6-22.6c4-7.4,6.9-15,5.7-23.4
			c4.3-3.4,8.7-6.8,13-10.3c1.1,16.3-0.1,23.5-2.4,31c-2.4,7.5-5.9,15.4-10.4,22.6c-4.5,7.2-10.1,13.7-17.2,20
			c-7,6.3-15.4,12.4-25.3,18.3c-9.9,5.9-21.1,11.7-34.1,17.5c-12.9,5.8-27.5,11.6-44.9,17.1c-17.3,5.6-37.4,10.9-57.4,15.6
			c-20.1,4.7-40.2,8.7-66.3,12c-26.1,3.4-58.3,6.1-90.5,5.8c-3.7,13.1-8.8,23.1-14.3,32c-5.5,8.9-11.4,16.8-17.9,23.7
			c-6.5,6.9-13.7,12.7-20.5,17.4c-6.8,4.7-13.3,8.3-20.8,11.2c-7.5,2.9-16,5.3-25.4,6.6c-9.4,1.3-19.7,1.6-29,1.3
			c-9.3-0.3-17.6-1.2-27-3.4c-9.4-2.2-19.9-5.8-29-9.7c-9.1-3.9-16.7-8.1-23.9-12.8c-7.2-4.8-13.9-10.2-19.6-15.8
			c-5.7-5.6-10.4-11.5-14.9-18.1c-4.5-6.6-8.8-14-12.7-22.7c-3.9-8.7-7.5-18.8-9.5-32.1c-8.8,0.6-19.9-1.7-32.2-4.9
			c-12.3-3.3-25.8-7.6-40.6-13.7c-14.8-6.2-31-14.2-43.5-21.1c-12.4-7-21.1-12.9-27.6-18.4c-6.5-5.5-10.9-10.6-14.8-15.7
			c-3.9-5.1-7.5-10.3-11.2-19.2c-3.7-8.8-7.5-21.4-7.5-37.8c0.9,0.7,1.7,1.4,2.6,2.1c4.2,3.4,8.4,6.7,12.7,10
			c0.1,0.1,0.2,0.2,0.3,0.2C42.7,480,47.7,488.5,52.8,495.7z M45.6,466.5c2.1,1.5,4.1,3,6.2,4.5c3.5,2.5,7,5,10.6,7.4
			c3.4,2.3,6.8,4.6,10.3,6.8c3.4,2.2,6.9,4.3,10.3,6.4c3.7,2.2,7.5,4.3,11.4,6.3c4.5,2.3,9,4.5,13.6,6.7c5.5,2.5,11,5,16.5,7.3
			c6.1,2.6,12.3,5.1,18.5,7.5c8.3,3.2,16.7,6.2,25.1,9.1c5.6,1.9,11.2,3.7,16.8,5.3c2.3,0.7,4.7,1.3,7.1,2c1.9,0.5,3.9,1,5.9,1.4
			c1.6,0.3,3.2,0.7,4.8,1c0.5-1.6,0.9-3.1,1.4-4.7c1.1-3.8,2.3-7.5,3.5-11.2c0.9-2.7,1.9-5.4,3-8.1c0.8-2,1.6-3.9,2.5-5.8
			c0.7-1.5,1.5-3,2.4-4.4c0.4-0.7,0.8-1.4,1.2-2c0.8-1.3,1.5-2.5,2.3-3.7c1.7-2.6,3.5-5.2,5.4-7.8c1.9-2.5,3.9-4.9,6.1-7.2
			c2.2-2.3,4.5-4.6,7-6.7c2.4-2.1,5-4.2,7.6-6.1c2.5-1.9,5.1-3.7,7.8-5.4c2.6-1.7,5.3-3.2,8-4.6c2.8-1.5,5.7-2.8,8.7-3.9
			c3.2-1.2,6.4-2.3,9.7-3.2c3.7-1,7.4-1.8,11.2-2.5c4.2-0.7,8.4-1.3,12.7-1.7c4.4-0.4,8.7-0.7,13.1-0.8c4.2-0.1,8.5-0.1,12.7,0.2
			c4.2,0.2,8.4,0.7,12.6,1.4c4.3,0.7,8.7,1.6,12.9,2.8c4.5,1.2,8.8,2.6,13.2,4.2c4.4,1.6,8.7,3.4,13,5.4c4.2,2,8.3,4.1,12.3,6.5
			c3.9,2.3,7.6,4.8,11.2,7.6c3.5,2.7,6.9,5.6,10.1,8.7c3.2,3.1,6.3,6.3,9.2,9.6c3,3.3,5.8,6.8,8.5,10.3c2.7,3.5,5.3,7.1,7.8,10.8
			c1.1,1.7,2.2,3.4,3.3,5.1c0.6,0.9,1.1,1.9,1.7,2.8c1.1,1.9,2.2,3.9,3.2,5.9c1.1,2.2,2.2,4.5,3.1,6.8c1.1,2.8,2.2,5.6,3.1,8.5
			c1.2,3.5,2.2,7.1,3.2,10.7c0.4,1.4,0.7,2.7,1.1,4.1c1.4-0.1,2.8-0.1,4.3-0.2c14.6-0.6,29.2-1.2,43.9-2.1c11.5-0.7,23-1.4,34.5-2.3
			c9-0.7,17.9-1.5,26.9-2.5c7-0.8,14.1-1.7,21.1-2.7c5.7-0.8,11.4-1.8,17.1-2.9c3.3-0.6,6.7-1.3,10-1.9c4.6-0.9,9.1-1.9,13.7-3
			c8-1.9,16-4,23.8-6.3c7-2.1,13.9-4.4,20.8-6.9c6.6-2.4,13.2-5,19.7-7.8c6.9-3,13.7-6.1,20.4-9.4c3.7-1.8,7.3-3.7,11-5.6
			c2.6-1.3,5.2-2.7,7.7-4.1c4.3-2.3,8.6-4.7,12.8-7.2c5.1-3,10.1-6.1,15-9.4c6.2-4,12.2-8.3,18.2-12.6c6.8-4.9,13.5-9.9,20.1-15.1
			c0,0.3,0,0.5,0,0.8c0,1.1-0.1,2.2-0.2,3.2c-0.3,2.2-0.9,4.3-1.6,6.4c-0.8,2.2-1.8,4.4-2.9,6.5c-0.9,1.8-1.9,3.6-3,5.3
			c-1.4,2.3-2.9,4.5-4.5,6.7c-1.7,2.3-3.5,4.6-5.4,6.8c-2.1,2.5-4.3,4.8-6.6,7.1c-2.5,2.5-5.1,5-7.8,7.4c-2.8,2.5-5.7,5-8.6,7.4
			c-3,2.5-6.1,4.8-9.2,7.2c-3.1,2.3-6.3,4.5-9.5,6.7c-6.5,4.3-13.2,8.3-20.1,12c-7.1,3.7-14.5,7.1-22,10.1c-7.9,3.2-15.9,6-24.1,8.6
			c-9.1,2.9-18.2,5.4-27.4,7.8c-5.3,1.4-10.5,2.7-15.8,4c-5.9,1.4-11.8,2.8-17.8,4.1c-12.9,2.8-25.8,5.2-38.8,7.4
			c-4.3,0.7-8.5,1.4-12.8,2c-4.8,0.7-9.5,1.3-14.3,1.9c-11.6,1.4-23.2,2.6-34.8,3.5c-7.1,0.6-14.3,1.1-21.4,1.5
			c-8.2,0.5-16.5,0.9-24.7,1.3c-0.9,0-1.7,0.1-2.6,0.1c-0.4,0.8-0.7,1.6-1.1,2.3c-2.5,5.3-5.1,10.6-7.8,15.7
			c-2.2,4.2-4.6,8.4-7.1,12.5c-2.2,3.5-4.4,6.9-6.9,10.2c-2.2,3.1-4.6,6-7,8.9c-4.5,5.3-9.4,10.2-14.7,14.6c-2.5,2-5,3.9-7.6,5.7
			c-2.6,1.7-5.2,3.3-7.9,4.7c-2.7,1.4-5.5,2.7-8.3,4c-2.9,1.2-5.8,2.3-8.7,3.3c-3,1-6,2-9.1,2.8c-3,0.8-6.1,1.5-9.2,2.1
			c-3,0.6-6,1-9.1,1.4c-3,0.3-5.9,0.5-8.9,0.5c-3,0.1-6.1,0-9.1-0.2c-3.2-0.2-6.4-0.5-9.5-0.9c-7-0.9-13.9-2.2-20.6-4.1
			c-3.6-1-7.1-2.2-10.6-3.5c-1.8-0.7-3.5-1.4-5.3-2.2c-1.8-0.8-3.5-1.7-5.2-2.6c-3.5-1.8-6.9-3.8-10.2-5.9c-3.2-2.1-6.4-4.3-9.5-6.6
			c-3.5-2.6-6.8-5.4-10-8.3c-2.6-2.4-5.2-5-7.6-7.6c-2.7-2.9-5.2-6-7.7-9.1c-1.7-2.2-3.4-4.3-5-6.5c-3.1-4.3-6.1-8.6-8.9-13.1
			c-3.3-5.4-6.3-11-8.9-16.7c-3.2-6.9-5.9-14.1-8.2-21.4c-0.3-0.9-0.6-1.8-0.8-2.7c-0.9-0.1-1.9-0.2-2.8-0.3
			c-6.5-0.6-12.9-1.5-19.3-3c-2.7-0.6-5.4-1.3-8-2.1c-2.6-0.7-5.1-1.5-7.6-2.4c-2.6-0.8-5.2-1.7-7.7-2.6c-2.7-0.9-5.3-1.8-8-2.8
			c-5.5-1.9-10.9-3.9-16.3-6c-5.5-2.1-10.9-4.4-16.2-6.7c-5.3-2.3-10.4-4.8-15.6-7.4c-4.8-2.5-9.6-5.1-14.2-7.9
			c-4.2-2.6-8.3-5.3-12.3-8.2c-3.5-2.6-6.9-5.3-10.2-8.1c-2.8-2.5-5.6-5.1-8.1-7.8c-2.4-2.6-4.7-5.3-6.8-8.1c-1-1.4-2-2.7-3-4.1
			c-0.5-0.8-1.1-1.5-1.6-2.3c-1.1-1.6-2.1-3.3-3-5c-1-1.9-1.9-4-2.7-6c-0.9-2.5-1.6-5-2.2-7.5C46.2,470.2,45.9,468.3,45.6,466.5z
			 M811.7,526.4C768.4,689,629,807.9,461.6,824.8c-167.4,17-327.8-71.4-402.9-222c-13.6-30.3-18.7-47.4-22.6-62.7
			c-3.8-14.8-6.5-28-9.9-53.9c0.5,1.4,1.1,2.8,1.7,4.3c0.9,2.2,1.9,4.3,2.9,6.4c0.9,1.8,1.9,3.6,2.9,5.3c0.9,1.6,1.9,3.1,3,4.6
			c1,1.4,2,2.8,3,4.1c2.1,2.8,4.4,5.5,6.7,8.1c2.8,3,5.7,5.8,8.8,8.5c3.8,3.2,7.9,6.2,12,9c5.3,3.6,10.8,6.8,16.4,10
			c3.3,1.9,6.7,3.7,10.1,5.4c3.6,1.9,7.3,3.8,11,5.6c3.8,1.9,7.6,3.7,11.5,5.4c3.8,1.7,7.6,3.4,11.5,5c7.1,2.9,14.3,5.6,21.6,8.1
			c6.5,2.2,13.1,4.1,19.7,5.9c3,0.8,6.1,1.6,9.2,2.3c2.9,0.7,5.8,1.2,8.7,1.7c3.7,0.6,7.4,1.1,11.2,1.2c0.8,4.4,1.9,8.8,3.2,13.1
			c1.1,3.8,2.5,7.5,4,11.2c1.4,3.5,3,7,4.7,10.4c1.7,3.3,3.4,6.6,5.3,9.7c1.8,3,3.6,5.9,5.6,8.7c1.9,2.7,3.8,5.4,5.9,8
			c2.1,2.6,4.2,5.1,6.5,7.5c2.4,2.5,4.8,4.9,7.4,7.1c5.4,4.8,11.1,9.1,17.1,13c6.4,4.1,13,7.7,19.9,10.9c3.8,1.7,7.7,3.3,11.6,4.8
			c4.1,1.5,8.2,2.9,12.3,4.2c4,1.2,8,2.3,12.1,3.2c3.8,0.8,7.6,1.5,11.4,1.9c3.7,0.5,7.5,0.7,11.3,0.9c1.9,0.1,3.9,0.1,5.8,0.2
			c2,0,4,0,6,0c4.1,0,8.2-0.2,12.3-0.5c4-0.3,8.1-0.8,12.1-1.5c7.3-1.2,14.6-3.1,21.5-5.8c3.2-1.2,6.3-2.5,9.3-4
			c3-1.5,5.9-3.1,8.8-4.9c3-1.8,5.8-3.8,8.6-5.8c3-2.2,5.9-4.5,8.8-6.9c3-2.6,5.8-5.3,8.6-8.1c2.8-2.9,5.5-6,8-9.2
			c2.6-3.3,5.1-6.7,7.4-10.2c2.3-3.5,4.6-7,6.6-10.7c2.1-3.7,4.1-7.5,5.8-11.4c1.9-4.3,3.6-8.8,5.1-13.3c9.7,0,19.3-0.2,29-0.7
			c9.3-0.4,18.5-1.1,27.8-1.9c8.6-0.8,17.1-1.7,25.7-2.7c7.9-1,15.7-2,23.5-3.3c7-1.1,14.1-2.3,21.1-3.7c6.5-1.3,13-2.6,19.5-4.1
			c6.3-1.4,12.6-2.9,18.9-4.4c6.2-1.5,12.4-3.1,18.6-4.8c6-1.6,11.9-3.3,17.8-5.1c5.5-1.7,11.1-3.4,16.6-5.3
			c9.7-3.3,19.3-6.9,28.8-10.8c4.2-1.8,8.4-3.6,12.6-5.5c3.9-1.8,7.8-3.6,11.6-5.5c7-3.5,13.9-7.2,20.6-11.2
			c6-3.6,11.8-7.4,17.3-11.6c2.5-1.9,5-3.9,7.4-6c2.3-2,4.5-4.1,6.6-6.2c2-2.1,4-4.2,5.9-6.5c1.8-2.2,3.5-4.5,5.1-6.8
			c3.2-4.6,5.9-9.5,8.2-14.6c1.1-2.5,2.2-5,3.1-7.5c0.5-1.2,0.9-2.5,1.3-3.8c0.2-0.7,0.5-1.5,0.7-2.2c0.1-0.2,0.1-0.4,0.2-0.6
			C818.7,495.2,814.6,514.8,811.7,526.4z M825.2,429.4c-54,44.6-78.4,58.9-98.8,69.6c-20.4,10.8-36.8,18.1-54.2,24.5
			c-17.5,6.4-36,11.8-62.4,17c-26.3,5.1-60.4,10-147.6,13.4c-5-18.7-9.7-27.8-15.1-36.5c-5.5-8.7-11.7-17.2-18.6-25.1
			c-6.9-7.9-14.3-15.3-22.9-21.7c-8.6-6.4-18.4-11.7-28.6-16c-10.2-4.3-20.8-7.6-31-9.5c-10.2-1.9-19.9-2.5-30.1-2.3
			c-10.2,0.3-20.9,1.4-30.1,3.3c-9.2,1.8-16.8,4.4-23.7,7.6c-6.9,3.2-13.1,7-19.3,11.5c-6.1,4.5-12.2,9.6-17.3,15.3
			c-5.2,5.7-9.4,11.9-13.3,18.2c-3.9,6.4-7.4,13-13.4,33.1c-8.7-1.8-24.7-6.8-41.4-12.8c-16.7-6-34-13.2-47.2-19.3
			c-13.2-6.1-22.3-11.3-31.3-16.9c-9-5.6-17.8-11.7-27.6-18.8c-9.8-7.1-20.4-15.2-34.8-28.1c-3.7-109,36.9-214.9,112.4-293.6
			C204.4,63.7,308.4,18.8,417.5,17.9C526.6,17,631.4,60.2,708.1,137.7C784.9,215.2,827.1,320.4,825.2,429.4z"/>
		<g>
			<path d="M381.5,529.3c-13.1-13.9-31-22-49.9-23.3c-18.9-1.3-37.8,4.4-52.6,16.4c-14.8,12-24.3,29.3-25.6,48.5
				c-1.3,19.2,5.7,37.6,18.8,51.5c13.1,13.9,31,22,49.9,23.3c18.9,1.3,37.8-4.4,52.6-16.4c14.8-12,24.3-29.3,25.6-48.5
				C401.6,561.7,394.6,543.2,381.5,529.3z M353.2,635.7c-3.8,1.5-7.8,2.6-11.8,3.4c-6.2,1.3-12.6,1.7-19,1.2
				c-3.1-0.2-6.2-0.6-9.2-1.2c-3.2-0.6-6.3-1.5-9.4-2.6c-4.2-1.5-8.4-3.3-12.3-5.6c-3-1.7-5.8-3.7-8.5-5.8c-2.7-2.2-5.2-4.5-7.6-7.1
				c-2.3-2.5-4.4-5.2-6.3-8.1c-1.9-2.8-3.5-5.7-4.9-8.8c-1.8-3.9-3.2-8-4.1-12.2c-0.6-2.6-1-5.2-1.3-7.8
				c-0.4-22.9,11.6-44.4,31.3-56.1c19.7-11.8,44.3-12,64.2-0.5c19.9,11.5,32,32.8,31.7,55.8C385.8,603.5,373.3,624.5,353.2,635.7z
				 M395,580.5c-0.4,6-1.7,11.9-3.8,17.5c-1.5,4-3.4,7.9-5.7,11.5c-1.8,2.8-3.8,5.5-6,8c-0.6,0.7-1.2,1.3-1.8,1.9
				c0.9-1.3,1.8-2.7,2.7-4c19.6-32,9.8-73.9-22.2-93.5c-15.7-9.6-34.7-12.4-52.5-7.7c2.2-0.7,4.4-1.2,6.6-1.7
				c6.2-1.3,12.6-1.7,19-1.2c3.1,0.2,6.2,0.6,9.2,1.2c3.2,0.6,6.3,1.5,9.4,2.6c4.2,1.5,8.4,3.3,12.3,5.6c3,1.7,5.8,3.7,8.5,5.8
				c2.7,2.2,5.2,4.5,7.6,7.1c2.3,2.5,4.4,5.2,6.3,8.1c1.9,2.8,3.5,5.7,4.9,8.8c1.8,3.9,3.2,8,4.1,12.2
				C394.9,568.5,395.4,574.5,395,580.5z"/>
			<path class="st1" d="M353.2,635.7c-3.8,1.5-7.8,2.6-11.8,3.4c-6.2,1.3-12.6,1.7-19,1.2c-3.1-0.2-6.2-0.6-9.2-1.2
				c-3.2-0.6-6.3-1.5-9.4-2.6c-4.2-1.5-8.4-3.3-12.3-5.6c-3-1.7-5.8-3.7-8.5-5.8c-2.7-2.2-5.2-4.5-7.6-7.1c-2.3-2.5-4.4-5.2-6.3-8.1
				c-1.9-2.8-3.5-5.7-4.9-8.8c-1.8-3.9-3.2-8-4.1-12.2c-0.6-2.6-1-5.2-1.3-7.8c-0.4-22.9,11.6-44.4,31.3-56.1
				c19.7-11.8,44.3-12,64.2-0.5c19.9,11.5,32,32.8,31.7,55.8C385.8,603.5,373.3,624.5,353.2,635.7z"/>
			<path class="st2" d="M395,580.5c-0.4,6-1.7,11.9-3.8,17.5c-1.5,4-3.4,7.9-5.7,11.5c-1.8,2.8-3.8,5.5-6,8
				c-0.6,0.7-1.2,1.3-1.8,1.9c0.9-1.3,1.8-2.7,2.7-4c19.6-32,9.8-73.9-22.2-93.5c-15.7-9.6-34.7-12.4-52.5-7.7
				c2.2-0.7,4.4-1.2,6.6-1.7c6.2-1.3,12.6-1.7,19-1.2c3.1,0.2,6.2,0.6,9.2,1.2c3.2,0.6,6.3,1.5,9.4,2.6c4.2,1.5,8.4,3.3,12.3,5.6
				c3,1.7,5.8,3.7,8.5,5.8c2.7,2.2,5.2,4.5,7.6,7.1c2.3,2.5,4.4,5.2,6.3,8.1c1.9,2.8,3.5,5.7,4.9,8.8c1.8,3.9,3.2,8,4.1,12.2
				C394.9,568.5,395.4,574.5,395,580.5z"/>
		</g>
	</g>
	<path class="st2" d="M52.8,495.7c5,7.2,10.1,13.1,17,19.4c7,6.2,15.8,12.8,26.4,19.1c10.5,6.3,22.7,12.2,35.3,17.4
		c12.5,5.2,25.3,9.7,37.2,13.7c11.9,4,22.8,7.4,40.3,9.1c8.2,26.2,19.2,42.7,28.4,54.8c9.1,12.1,16.4,19.8,25.8,27.3
		c9.4,7.5,20.9,14.9,32.6,19.8c11.7,4.9,23.7,7.4,34.5,8.8c10.8,1.4,20.4,1.6,30.4,0.4c10-1.2,20.4-3.9,30.1-7.5
		c9.7-3.6,18.5-8.2,27-14.6c8.5-6.4,16.6-14.7,24.2-24.8c7.6-10.1,14.7-22,23.6-41.1c56.8-2.5,88-6.8,113.5-11.1
		c25.4-4.4,45-8.8,61.8-13.1c16.8-4.2,30.7-8.2,43.8-12.8c13.1-4.5,25.3-9.7,36.7-15.6c11.4-6,22-12.8,32.1-20.4
		c10.1-7.6,19.7-16.1,27.1-23.9c7.4-7.9,12.6-15.2,16.6-22.6c4-7.4,6.9-15,5.7-23.4c4.3-3.4,8.7-6.8,13-10.3
		c1.1,16.3-0.1,23.5-2.4,31c-2.4,7.5-5.9,15.4-10.4,22.6c-4.5,7.2-10.1,13.7-17.2,20c-7,6.3-15.4,12.4-25.3,18.3
		c-9.9,5.9-21.1,11.7-34.1,17.5c-12.9,5.8-27.5,11.6-44.9,17.1c-17.3,5.6-37.4,10.9-57.4,15.6c-20.1,4.7-40.2,8.7-66.3,12
		c-26.1,3.4-58.3,6.1-90.5,5.8c-3.7,13.1-8.8,23.1-14.3,32c-5.5,8.9-11.4,16.8-17.9,23.7c-6.5,6.9-13.7,12.7-20.5,17.4
		c-6.8,4.7-13.3,8.3-20.8,11.2c-7.5,2.9-16,5.3-25.4,6.6c-9.4,1.3-19.7,1.6-29,1.3c-9.3-0.3-17.6-1.2-27-3.4
		c-9.4-2.2-19.9-5.8-29-9.7c-9.1-3.9-16.7-8.1-23.9-12.8c-7.2-4.8-13.9-10.2-19.6-15.8c-5.7-5.6-10.4-11.5-14.9-18.1
		c-4.5-6.6-8.8-14-12.7-22.7c-3.9-8.7-7.5-18.8-9.5-32.1c-8.8,0.6-19.9-1.7-32.2-4.9c-12.3-3.3-25.8-7.6-40.6-13.7
		c-14.8-6.2-31-14.2-43.5-21.1c-12.4-7-21.1-12.9-27.6-18.4c-6.5-5.5-10.9-10.6-14.8-15.7c-3.9-5.1-7.5-10.3-11.2-19.2
		c-3.7-8.8-7.5-21.4-7.5-37.8c0.9,0.7,1.7,1.4,2.6,2.1c4.2,3.4,8.4,6.7,12.7,10c0.1,0.1,0.2,0.2,0.3,0.2
		C42.7,480,47.7,488.5,52.8,495.7z"/>
	<path class="st2" d="M811.7,526.4C768.4,689,629,807.9,461.6,824.8c-167.4,17-327.8-71.4-402.9-222c-13.6-30.3-18.7-47.4-22.6-62.7
		c-3.8-14.8-6.5-28-9.9-53.9c0.5,1.4,1.1,2.8,1.7,4.3c0.9,2.2,1.9,4.3,2.9,6.4c0.9,1.8,1.9,3.6,2.9,5.3c0.9,1.6,1.9,3.1,3,4.6
		c1,1.4,2,2.8,3,4.1c2.1,2.8,4.4,5.5,6.7,8.1c2.8,3,5.7,5.8,8.8,8.5c3.8,3.2,7.9,6.2,12,9c5.3,3.6,10.8,6.8,16.4,10
		c3.3,1.9,6.7,3.7,10.1,5.4c3.6,1.9,7.3,3.8,11,5.6c3.8,1.9,7.6,3.7,11.5,5.4c3.8,1.7,7.6,3.4,11.5,5c7.1,2.9,14.3,5.6,21.6,8.1
		c6.5,2.2,13.1,4.1,19.7,5.9c3,0.8,6.1,1.6,9.2,2.3c2.9,0.7,5.8,1.2,8.7,1.7c3.7,0.6,7.4,1.1,11.2,1.2c0.8,4.4,1.9,8.8,3.2,13.1
		c1.1,3.8,2.5,7.5,4,11.2c1.4,3.5,3,7,4.7,10.4c1.7,3.3,3.4,6.6,5.3,9.7c1.8,3,3.6,5.9,5.6,8.7c1.9,2.7,3.8,5.4,5.9,8
		c2.1,2.6,4.2,5.1,6.5,7.5c2.4,2.5,4.8,4.9,7.4,7.1c5.4,4.8,11.1,9.1,17.1,13c6.4,4.1,13,7.7,19.9,10.9c3.8,1.7,7.7,3.3,11.6,4.8
		c4.1,1.5,8.2,2.9,12.3,4.2c4,1.2,8,2.3,12.1,3.2c3.8,0.8,7.6,1.5,11.4,1.9c3.7,0.5,7.5,0.7,11.3,0.9c1.9,0.1,3.9,0.1,5.8,0.2
		c2,0,4,0,6,0c4.1,0,8.2-0.2,12.3-0.5c4-0.3,8.1-0.8,12.1-1.5c7.3-1.2,14.6-3.1,21.5-5.8c3.2-1.2,6.3-2.5,9.3-4
		c3-1.5,5.9-3.1,8.8-4.9c3-1.8,5.8-3.8,8.6-5.8c3-2.2,5.9-4.5,8.8-6.9c3-2.6,5.8-5.3,8.6-8.1c2.8-2.9,5.5-6,8-9.2
		c2.6-3.3,5.1-6.7,7.4-10.2c2.3-3.5,4.6-7,6.6-10.7c2.1-3.7,4.1-7.5,5.8-11.4c1.9-4.3,3.6-8.8,5.1-13.3c9.7,0,19.3-0.2,29-0.7
		c9.3-0.4,18.5-1.1,27.8-1.9c8.6-0.8,17.1-1.7,25.7-2.7c7.9-1,15.7-2,23.5-3.3c7-1.1,14.1-2.3,21.1-3.7c6.5-1.3,13-2.6,19.5-4.1
		c6.3-1.4,12.6-2.9,18.9-4.4c6.2-1.5,12.4-3.1,18.6-4.8c6-1.6,11.9-3.3,17.8-5.1c5.5-1.7,11.1-3.4,16.6-5.3
		c9.7-3.3,19.3-6.9,28.8-10.8c4.2-1.8,8.4-3.6,12.6-5.5c3.9-1.8,7.8-3.6,11.6-5.5c7-3.5,13.9-7.2,20.6-11.2
		c6-3.6,11.8-7.4,17.3-11.6c2.5-1.9,5-3.9,7.4-6c2.3-2,4.5-4.1,6.6-6.2c2-2.1,4-4.2,5.9-6.5c1.8-2.2,3.5-4.5,5.1-6.8
		c3.2-4.6,5.9-9.5,8.2-14.6c1.1-2.5,2.2-5,3.1-7.5c0.5-1.2,0.9-2.5,1.3-3.8c0.2-0.7,0.5-1.5,0.7-2.2c0.1-0.2,0.1-0.4,0.2-0.6
		C818.7,495.2,814.6,514.8,811.7,526.4z"/>
</g>
</svg>
