<?xml version="1.0" encoding="utf-8"?>
<!-- Generator: Adobe Illustrator 23.0.5, SVG Export Plug-In . SVG Version: 6.00 Build 0)  -->
<svg version="1.1" id="Capa_1" xmlns="http://www.w3.org/2000/svg" xmlns:xlink="http://www.w3.org/1999/xlink" x="0px" y="0px"
	 viewBox="0 0 517 518" style="enable-background:new 0 0 517 518;" xml:space="preserve">
<style type="text/css">
	.st0{fill:none;stroke:#FFFFFF;stroke-width:10;stroke-miterlimit:10;}
	.st1{clip-path:url(#SVGID_2_);}
	.st2{fill:#FFFFFF;}
</style>
<g>
	<path class="st0" d="M506.6,257.9c0.6,136.4-108.9,247.2-244.2,249.1C123.6,509.1,12.1,398,10.4,262.3
		C8.7,123.2,120.9,11.2,258.2,10.9C394.5,10.6,505.9,121.2,506.6,257.9z"/>
	<g>
		<defs>
			<path id="SVGID_1_" d="M470.6,299.2c0.5,113.8-93.1,206.2-208.8,207.8c-118.7,1.7-213.9-91-215.4-204.2
				c-1.5-116,94.5-209.5,211.9-209.7C374.8,92.9,470,185.2,470.6,299.2z"/>
		</defs>
		<clipPath id="SVGID_2_">
			<use xlink:href="#SVGID_1_"  style="overflow:visible;"/>
		</clipPath>
		<g class="st1">
			<path class="st2" d="M22.9,270.9c1.3-64.1,27.5-125.8,81.8-174.6c37.7-33.9,82.2-53.3,132.8-57.8c85.3-7.7,167,31.6,214.8,103
				c30.7,45.8,45,96.4,41.5,151.4c-5.2,80.5-41.1,144.3-107.9,190c-31.9,21.8-67.6,33.9-106.2,37.4c-89.4,8.3-173.9-36-220.5-112
				C34.9,368.8,23.1,325.7,22.9,270.9z M299.3,380.5c7.5,7.5,11.3,16.3,13.3,25.9c1.3,6.1,1.6,12.3,1.6,18.5
				c-0.1,20.2-0.2,40.3-0.2,60.5c0,8.3,5.9,13.1,14,11.5c1.1-0.2,2.1-0.5,3.1-0.9c8.4-2.9,16.5-6.3,24.4-10.3
				c73.6-36.8,122.1-111.1,125.9-193.3c2.9-62.5-15-118.5-56.7-165.3C371.1,66.6,303.2,41.4,223,53.7
				c-58.2,8.9-105.2,38.5-140.6,85.4c-40,53-54.8,113.1-43.6,178.4c13.5,78.8,57,136,129.1,171c6.9,3.3,13.9,6.5,21.4,8.2
				c8,1.7,13.9-3.2,13.9-11.3c0-12-0.2-24-0.2-36c0-2.1-0.6-2.8-2.7-2.3c-4.3,1-8.7,1.5-13.1,1.9c-11.2,0.9-22.2-0.2-32.6-4.8
				c-13.5-6-22.3-16.2-27.6-29.9c-5.1-13.4-12.6-25.1-25.3-32.8c-2.3-1.4-4.2-3.2-5.9-5.3c-2.5-3.2-1.8-5.4,1.9-6.7
				c2.8-1,5.8-1.2,8.7-0.8c4.5,0.6,8.8,2,12.8,4.2c8.6,4.7,15,11.7,19.9,20c6.7,11.4,15.7,20,28.9,23c11.2,2.6,22,0.5,32.6-3.5
				c2.2-0.8,3.1-2.2,3.5-4.4c1.7-10,5.4-19.1,12.5-26.5c0.2-0.2,0.2-0.5,0.2-0.7c-0.8-0.7-1.7-0.5-2.6-0.6
				c-12.4-1.7-24.6-4.1-36.4-8.5c-27.4-10.1-46.1-28.6-55.1-56.5c-4.8-14.7-6.4-29.9-6.7-45.3c-0.4-23.4,6.3-44.4,21.6-62.3
				c0.9-1.1,1.2-2,0.7-3.4c-6.3-19.2-4.5-38.2,2.1-56.9c0.5-1.6,1.5-2.1,3-2.2c4.8-0.3,9.4,0.3,14,1.5c15.8,4,29.6,12,42.9,21
				c1.5,1,2.9,1.3,4.6,0.8c35.4-9.5,70.9-9.4,106.4-0.1c2.1,0.6,3.6,0.3,5.4-0.9c10.9-7.5,22.3-14.1,34.8-18.5
				c6.9-2.4,13.9-4.3,21.3-3.8c1.4,0.1,2.7,0.2,3.3,1.9c6.6,18.5,8.5,37.3,2.6,56.4c-0.6,2-0.4,3.4,0.9,5
				c9.8,11.5,16.6,24.7,19.1,39.6c4.3,25.2,2,50-7.1,73.9c-6.1,16-16.4,29-30.6,38.7c-11.4,7.7-24,12.5-37.3,15.7
				C316,378.1,308,379.2,299.3,380.5z"/>
		</g>
	</g>
</g>
</svg>
