<?xml version="1.0" encoding="utf-8"?>
<!-- Generator: Adobe Illustrator 23.0.5, SVG Export Plug-In . SVG Version: 6.00 Build 0)  -->
<svg version="1.1" id="Capa_1" xmlns="http://www.w3.org/2000/svg" xmlns:xlink="http://www.w3.org/1999/xlink" x="0px" y="0px"
	 viewBox="0 0 517 518" style="enable-background:new 0 0 517 518;" xml:space="preserve">
<style type="text/css">
	.st0{fill:none;stroke:#FFFFFF;stroke-width:10;stroke-miterlimit:10;}
	.st1{fill:#FFFFFF;}
</style>
<g>
	<path class="st0" d="M508.5,257.91c0.62,137.5-109.76,249.1-246.11,251.08C122.53,511.02,10.21,399.05,8.52,262.34
		C6.79,122.2,119.87,9.27,258.22,8.98C395.56,8.7,507.84,120.14,508.5,257.91z"/>
	<g>
		<path class="st1" d="M226.36,320.89c0-20.22,2.45-36.32,7.36-48.3c4.9-11.98,13.88-23.79,26.94-35.41
			c13.06-11.63,21.75-21.09,26.08-28.38c4.33-7.3,6.49-14.99,6.49-23.09c0-24.42-11.25-36.63-33.76-36.63
			c-10.68,0-19.23,3.29-25.64,9.87c-6.42,6.58-9.77,15.65-10.06,27.22h-62.76c0.29-27.58,9.2-49.17,26.73-64.76S229.18,98,259.47,98
			c30.58,0,54.32,7.4,71.2,22.2c16.88,14.8,25.32,35.71,25.32,62.71c0,12.27-2.74,23.87-8.22,34.77c-5.49,10.9-15.08,23-28.78,36.28
			l-17.53,16.68c-10.97,10.54-17.24,22.89-18.83,37.04l-0.87,13.21H226.36z M220.09,387.22c0-9.63,3.28-17.58,9.85-23.83
			c6.56-6.26,14.96-9.38,25.21-9.38c10.24,0,18.64,3.13,25.21,9.38c6.56,6.26,9.85,14.2,9.85,23.83c0,9.49-3.21,17.33-9.63,23.51
			c-6.42,6.18-14.9,9.27-25.43,9.27c-10.53,0-19.01-3.09-25.43-9.27C223.3,404.54,220.09,396.71,220.09,387.22z"/>
	</g>
</g>
</svg>
