<?xml version="1.0" encoding="utf-8"?>
<!-- Generator: Adobe Illustrator 23.0.5, SVG Export Plug-In . SVG Version: 6.00 Build 0)  -->
<svg version="1.1" id="Capa_1" xmlns="http://www.w3.org/2000/svg" xmlns:xlink="http://www.w3.org/1999/xlink" x="0px" y="0px"
	 viewBox="0 0 517 518" style="enable-background:new 0 0 517 518;" xml:space="preserve">
<style type="text/css">
	.st0{fill:none;stroke:#FFFFFF;stroke-width:10;stroke-miterlimit:10;}
	.st1{fill:#FFFFFF;}
</style>
<g>
	<path class="st0" d="M506.6,257.9c0.6,136.4-108.9,247.2-244.2,249.1C123.6,509.1,12.1,398,10.4,262.3
		C8.7,123.2,120.9,11.2,258.2,10.9C394.5,10.6,505.9,121.2,506.6,257.9z"/>
	<g>
		<path class="st1" d="M275.1,384.7c-22.1,0-42,0-62.7,0c0-62.6,0-124.6,0-187.6c20.3,0,40.5,0,62,0c0.4,6.9,0.7,13.8,1.2,24.2
			c15.4-21.4,34.4-30.3,58-30.2c35.8,0.3,65.3,22.7,69.5,58.4c5.3,44.6,1.1,89.6,2,135.1c-21.3,0-41.1,0-62.8,0
			c0-30.1,0-59.9,0-89.7c0-6.4,0.2-12.7-0.1-19.1c-0.9-20.5-15.5-34.9-34.7-34.4c-18.5,0.5-32.3,14.9-32.5,34.9
			c-0.3,31.3-0.1,62.7-0.1,94C275.1,374.9,275.1,379.3,275.1,384.7z"/>
		<path class="st1" d="M114.8,196.9c20.5,0,40.7,0,61.6,0c0,62.5,0,124.5,0,187.4c-20.3,0-40.4,0-61.6,0
			C114.8,322.2,114.8,259.9,114.8,196.9z"/>
		<path class="st1" d="M111,137.7c-0.1-18.3,15.2-33.3,34.1-33.4c19.3-0.1,34.6,14.1,35,32.4c0.4,18.9-15.2,34.3-34.7,34.2
			C126.5,170.9,111.1,156,111,137.7z"/>
	</g>
</g>
</svg>
