<?xml version="1.0" encoding="utf-8"?>
<!-- Generator: Adobe Illustrator 23.0.5, SVG Export Plug-In . SVG Version: 6.00 Build 0)  -->
<svg version="1.1" id="Capa_1" xmlns="http://www.w3.org/2000/svg" xmlns:xlink="http://www.w3.org/1999/xlink" x="0px" y="0px"
	 viewBox="0 0 517 518" style="enable-background:new 0 0 517 518;" xml:space="preserve">
<style type="text/css">
	.st0{fill:none;stroke:#FFFFFF;stroke-width:10;stroke-miterlimit:10;}
	.st1{opacity:0.15;fill:#FFFFFF;enable-background:new    ;}
	.st2{fill:#FFFFFF;}
	.st3{fill:none;stroke:#E51F1F;stroke-width:25;stroke-linecap:round;stroke-miterlimit:10;}
</style>
<g>
	<path class="st0" d="M-1340.5,258.9c0.6,141.9-113.3,257.1-254,259.1c-144.3,2.1-260.2-113.5-262-254.5
		C-1858.3,118.8-1741.6,2.3-1598.8,2C-1457.1,1.7-1341.2,116.7-1340.5,258.9z"/>
	<path class="st1" d="M-1340.5,256.9c0.6,141.9-113.3,257.1-254,259.1c-144.3,2.1-260.2-113.5-262-254.5
		C-1858.3,116.8-1741.6,0.3-1598.8,0C-1457.1-0.3-1341.2,114.7-1340.5,256.9z"/>
	<g>
		<path class="st2" d="M-1631.7,323.9c0-20.9,2.5-37.5,7.6-49.9s14.3-24.6,27.8-36.6s22.4-21.8,26.9-29.3s6.7-15.5,6.7-23.8
			c0-25.2-11.6-37.8-34.8-37.8c-11,0-19.8,3.4-26.5,10.2c-6.6,6.8-10.1,16.1-10.4,28.1h-64.8c0.3-28.5,9.5-50.7,27.6-66.8
			s42.8-24.1,74-24.1c31.6,0,56.1,7.6,73.5,22.9s26.1,36.8,26.1,64.7c0,12.7-2.8,24.6-8.5,35.9s-15.6,23.7-29.7,37.4l-18.1,17.2
			c-11.3,10.9-17.8,23.6-19.4,38.2l-0.9,13.6L-1631.7,323.9L-1631.7,323.9z M-1638.1,392.3c0-9.9,3.4-18.1,10.2-24.6
			c6.8-6.5,15.4-9.7,26-9.7s19.2,3.2,26,9.7s10.2,14.7,10.2,24.6c0,9.8-3.3,17.9-9.9,24.3s-15.4,9.6-26.2,9.6s-19.6-3.2-26.2-9.6
			C-1634.8,410.2-1638.1,402.1-1638.1,392.3z"/>
	</g>
</g>
<g>
	<g>
		<path class="st0" d="M506.6,257.9c0.6,136.4-108.9,247.2-244.2,249.1c-138.8,2.1-250.3-109-252-244.7
			C8.7,123.2,120.9,11.2,258.2,10.9C394.5,10.6,505.9,121.2,506.6,257.9z"/>
		<g>
			<path class="st2" d="M262.3,383.1c0.9,5-1.8,8.5-5.7,10.7c-4.3,2.5-9,2.1-13.1-1.1c-8.8-6.9-17.5-14-26.3-21
				c-19.5-15.6-39-31.3-58.5-46.8c-3-2.4-4.4-4.8-4.4-8.8c0.2-36.2,0.1-72.4,0.1-108.6c0-2.9,0.6-5.1,3-7
				c28.5-22.8,56.9-45.6,85.5-68.4c4.2-3.4,8.9-4.3,13.8-1.3c0.2,2.1-1.9,1.9-3.1,2.8c1.4,0.8,4.1-0.1,3.6,1.7
				c-1.3,4.5,1.5,8.2,1.5,12.6c-0.2,75.4-0.2,150.9-0.1,226.3c0,2.1-0.2,4.1,0.5,6.2C259.6,382.1,260.3,383.3,262.3,383.1z"/>
			<path class="st2" d="M418.1,261.4c-0.6,53.9-19.2,100.8-57.2,139.9c-8.5,8.8-20.9,6.8-25.6-4.1c-2.4-5.4-0.9-11.9,3.9-16.7
				c14.4-14.4,26-30.8,33.9-49.6c23.2-55.3,19.3-108.6-12-159.8c-6.3-10.3-14.1-19.4-22.5-28c-5.1-5.3-5.9-12.9-2.1-18.5
				c4.2-6.3,11-8.5,18.1-6c2.7,0.9,4.7,2.8,6.5,4.7c28.9,30,47.2,65.4,54,106.6C417,240.2,417.7,250.5,418.1,261.4z"/>
			<path class="st2" d="M352.9,261.7c-0.4,34-12.1,63.5-35.4,88.2c-5.6,6-11.9,7.6-18.1,4.9c-5.9-2.6-9.3-8-9.1-14.5
				c0.1-4.4,2.3-7.9,5.3-11c18.7-19.2,27.7-42.4,27.3-69.1c-0.4-24.8-9.3-46.5-26.5-64.6c-6.1-6.5-7.7-12.1-4.9-18.6
				c4.5-10.2,17.2-11.9,25.4-3.4C340.4,198.4,352.2,227.8,352.9,261.7z"/>
			<path class="st2" d="M137.1,262.2c0,17.3-0.1,34.6,0.1,51.9c0,3.4-0.6,4.8-4.4,4.7c-9.4-0.3-18.9-0.1-28.3-0.1
				c-7.9,0-13.1-4.9-13.2-12.7c-0.1-29.1-0.1-58.3,0-87.4c0-7.7,4.9-12.6,12.7-12.8c9.9-0.2,19.8,0,29.8-0.2
				c3.4-0.1,3.4,1.8,3.4,4.3C137.1,227.3,137.1,244.7,137.1,262.2z"/>
			<path class="st2" d="M262.3,383.1c-2,0.3-2.7-1-3.3-2.7c-0.7-2.1-0.5-4.1-0.5-6.2c0-75.4-0.1-150.9,0.1-226.3
				c0-4.3-2.8-8.1-1.5-12.6c0.5-1.8-2.3-0.9-3.6-1.7c1.2-0.9,3.3-0.7,3.1-2.8c4.5,2.2,6.2,6,5.7,10.9c-0.7,0.3-0.7,0.6,0,1
				c0.1,1.3,0.2,2.6,0.2,3.8c0,76.3,0,152.6,0,228.9c0,1.3-0.1,2.5-0.2,3.8c-0.1,0.1-0.4,0.2-0.4,0.3c0.1,0.3,0.2,0.5,0.3,0.7
				C262.3,381.1,262.3,382.1,262.3,383.1z"/>
			<path class="st2" d="M262.4,142.7c-0.7-0.3-0.6-0.7,0-1C262.4,142,262.4,142.3,262.4,142.7z"/>
			<path class="st2" d="M262.3,380.2c-0.1-0.2-0.3-0.5-0.3-0.7c0,0,0.2-0.2,0.4-0.3C262.4,379.5,262.3,379.8,262.3,380.2z"/>
		</g>
	</g>
	<line class="st3" x1="109.9" y1="407.6" x2="407.1" y2="110.4"/>
</g>
</svg>
